<?xml version="1.0" encoding="iso-8859-1"?>
<!-- Generator: Adobe Illustrator 21.0.0, SVG Export Plug-In . SVG Version: 6.00 Build 0)  -->
<svg xmlns="http://www.w3.org/2000/svg" xmlns:xlink="http://www.w3.org/1999/xlink" version="1.1" id="Capa_1" x="0px" y="0px" viewBox="0 0 511.399 511.399" style="enable-background:new 0 0 511.399 511.399;" xml:space="preserve" width="512" height="512">
<g>
	<path style="fill:#FF9100;" d="M459.87,217.357l-86.609-50.019l-118.66,88.66l118.658,88.66l86.904-50.191   c13.55-8.232,21.636-22.617,21.636-38.467S473.712,225.766,459.87,217.357z"/>
	<path style="fill:#25D9F8;" d="M284.601,256c-0.13,0.167-104.915,134.891-105,135l-136.5,107.5   c-8.401-8.401-13.5-19.799-13.5-32.401V45.157c0-12.599,5.099-24,13.5-32.399L179.601,121   C179.686,121.109,284.471,255.833,284.601,256z"/>
	<polygon style="fill:#00C0F1;" points="284.601,256 254.601,294.699 254.601,217.299  "/>
	<path style="fill:#7FE881;" d="M373.402,167.199L284.601,256L43.101,12.759c2.999-2.701,6-4.801,9.3-6.901   c14.399-8.099,31.5-7.8,45.601,0.901L254.601,98.8L373.402,167.199z"/>
	<polygon style="fill:#5BC980;" points="373.402,167.199 284.601,256 254.601,226 254.601,98.8  "/>
	<path style="fill:#FF637B;" d="M373.402,344.799L254.601,413.2L97.702,504.8c-7.2,4.199-15,6.599-23.101,6.599   c-7.5,0-15-2.1-22.2-6c-3.3-2.1-6.301-4.199-9.3-6.899l241.5-242.5L373.402,344.799z"/>
	<polygon style="fill:#E63950;" points="373.402,344.799 254.601,413.2 254.601,286 284.601,256  "/>
</g>















</svg>
