<?xml version="1.0" encoding="iso-8859-1"?>
<!-- Generator: Adobe Illustrator 19.0.0, SVG Export Plug-In . SVG Version: 6.00 Build 0)  -->
<svg version="1.1" id="Layer_1" xmlns="http://www.w3.org/2000/svg" xmlns:xlink="http://www.w3.org/1999/xlink" x="0px" y="0px"
	 viewBox="0 0 491.52 491.52" style="enable-background:new 0 0 491.52 491.52;" xml:space="preserve">
<path style="fill:#F6C358;" d="M474.331,107.348H17.19c-9.493,0-17.19,7.695-17.19,17.19v145.098c0,9.493,7.696,17.189,17.19,17.189
	h457.141c9.493,0,17.189-7.695,17.189-17.189V124.538C491.52,115.043,483.825,107.348,474.331,107.348z"/>
<path style="fill:#FCD462;" d="M474.331,86.837H17.19C7.696,86.837,0,94.533,0,104.027v145.098c0,9.493,7.696,17.189,17.19,17.189
	h457.141c9.493,0,17.189-7.696,17.189-17.189V104.027C491.52,94.533,483.825,86.837,474.331,86.837z"/>
<g>
	<path style="fill:#2F4859;" d="M83.071,218.267H63.01l-28.838-83.383h18.181l20.688,63.007l20.688-63.007h18.181l20.692,63.007
		l20.688-63.007h18.181l-28.838,83.383h-20.066l-19.746-57.053L83.071,218.267z"/>
	<path style="fill:#2F4859;" d="M226.011,218.267H205.95l-28.838-83.383h18.18l20.689,63.007l20.688-63.007h18.18l20.692,63.007
		l20.689-63.007h18.18l-28.838,83.383h-20.065l-19.746-57.053L226.011,218.267z"/>
	<path style="fill:#2F4859;" d="M368.949,218.267h-20.061l-28.838-83.383h18.181l20.688,63.007l20.689-63.007h18.18l20.692,63.007
		l20.688-63.007h18.181l-28.838,83.383h-20.066l-19.745-57.053L368.949,218.267z"/>
</g>
<polygon style="fill:#E1E6E9;" points="453.355,278.161 245.76,197.086 326.834,404.683 356.841,342.406 417.775,403.34 
	452.013,369.102 391.079,308.168 "/>
<g>
</g>
<g>
</g>
<g>
</g>
<g>
</g>
<g>
</g>
<g>
</g>
<g>
</g>
<g>
</g>
<g>
</g>
<g>
</g>
<g>
</g>
<g>
</g>
<g>
</g>
<g>
</g>
<g>
</g>
</svg>
