<?xml version="1.0" encoding="iso-8859-1"?>
<!-- Generator: Adobe Illustrator 19.0.0, SVG Export Plug-In . SVG Version: 6.00 Build 0)  -->
<svg version="1.1" id="Capa_1" xmlns="http://www.w3.org/2000/svg" xmlns:xlink="http://www.w3.org/1999/xlink" x="0px" y="0px"
	 viewBox="0 0 395.947 395.947" style="enable-background:new 0 0 395.947 395.947;" xml:space="preserve">
<rect x="88.747" y="252.587" style="fill:#FFFFFF;" width="218.453" height="129.707"/>
<path style="fill:#602F75;" d="M307.2,389.12H88.747c-3.773,0-6.827-3.053-6.827-6.827V252.587c0-3.773,3.053-6.827,6.827-6.827
	H307.2c3.773,0,6.827,3.053,6.827,6.827v129.707C314.027,386.067,310.973,389.12,307.2,389.12z M95.573,375.467h204.8V259.413
	h-204.8V375.467z"/>
<path style="fill:#FFE600;" d="M368.64,389.12H27.307v-76.073c0-33.391,29.909-60.46,66.804-60.46L197.973,389.12l103.863-136.533
	c36.895,0,66.804,27.069,66.804,60.46V389.12z"/>
<path style="fill:#602F75;" d="M368.64,395.947H27.307c-3.773,0-6.827-3.053-6.827-6.827v-76.073
	c0-37.099,33.033-67.287,73.634-67.287c2.133,0,4.14,0.993,5.434,2.693l98.425,129.394L296.4,248.455
	c1.294-1.7,3.301-2.693,5.434-2.693c40.6-0.002,73.632,30.186,73.632,67.285v76.073C375.467,392.893,372.413,395.947,368.64,395.947
	z M211.746,382.293h150.067v-69.246c0-28.58-25.12-52.007-56.66-53.553L211.746,382.293z M34.133,382.293h150.067l-93.406-122.8
	c-31.541,1.546-56.661,24.974-56.661,53.553V382.293z"/>
<g>
	<path style="fill:#EA3457;" d="M215.04,273.067h-34.133c-9.426,0-17.067-7.641-17.067-17.067l0,0
		c0-9.426,7.641-17.067,17.067-17.067h34.133c9.426,0,17.067,7.641,17.067,17.067l0,0
		C232.107,265.426,224.466,273.067,215.04,273.067z"/>
	<path style="fill:#EA3457;" d="M215.04,279.893h-34.133c-13.174,0-23.893-10.72-23.893-23.893c0-13.174,10.72-23.893,23.893-23.893
		h34.133c13.174,0,23.893,10.72,23.893,23.893C238.933,269.174,228.214,279.893,215.04,279.893z M180.907,245.76
		c-5.647,0-10.24,4.593-10.24,10.24s4.593,10.24,10.24,10.24h34.133c5.647,0,10.24-4.593,10.24-10.24s-4.593-10.24-10.24-10.24
		H180.907z"/>
</g>
<polygon style="fill:#FFFFFF;" points="122.88,300.373 122.88,238.933 197.973,238.933 "/>
<path style="fill:#602F75;" d="M122.88,307.2c-0.993,0-1.993-0.213-2.927-0.66c-2.381-1.126-3.9-3.526-3.9-6.166v-61.44
	c0-3.773,3.053-6.827,6.827-6.827h75.093c2.886,0,5.46,1.812,6.427,4.533c0.973,2.714,0.126,5.746-2.106,7.579l-75.093,61.44
	C125.961,306.673,124.426,307.2,122.88,307.2z M129.707,245.76v40.207l49.14-40.207H129.707z"/>
<polygon style="fill:#FFFFFF;" points="273.067,300.373 273.067,238.933 197.973,238.933 "/>
<path style="fill:#602F75;" d="M273.067,307.2c-1.546,0-3.081-0.527-4.32-1.539l-75.093-61.44c-2.234-1.833-3.081-4.867-2.106-7.579
	c0.966-2.72,3.54-4.533,6.427-4.533h75.093c3.773,0,6.827,3.053,6.827,6.827v61.44c0,2.64-1.521,5.04-3.9,6.166
	C275.06,306.987,274.06,307.2,273.067,307.2z M217.1,245.76l49.14,40.207V245.76H217.1z"/>
<g>
	<polygon style="fill:#EA3457;" points="218.453,389.12 177.493,389.12 184.32,273.067 211.627,273.067 	"/>
	<path style="fill:#EA3457;" d="M218.453,395.947h-40.96c-1.881,0-3.68-0.773-4.966-2.147c-1.294-1.367-1.959-3.207-1.847-5.081
		l6.827-116.053c0.213-3.606,3.2-6.427,6.813-6.427h27.307c3.613,0,6.6,2.819,6.813,6.427l6.827,116.053
		c0.113,1.874-0.553,3.714-1.847,5.081C222.133,395.174,220.334,395.947,218.453,395.947z M184.733,382.293h26.481l-6.026-102.4
		h-14.426L184.733,382.293z"/>
</g>
<path style="fill:#602F75;" d="M197.973,225.28c-56.467,0-102.4-45.933-102.4-102.4s45.933-102.4,102.4-102.4
	s102.4,45.933,102.4,102.4c0,3.773-3.053,6.827-6.827,6.827s-6.827-3.053-6.827-6.827c0-48.934-39.813-88.747-88.747-88.747
	s-88.747,39.813-88.747,88.747s39.813,88.747,88.747,88.747c37.299,0,70.854-23.561,83.507-58.621c1.273-3.553,5.2-5.4,8.733-4.106
	c3.546,1.28,5.386,5.187,4.106,8.733C279.726,198.093,241.007,225.28,197.973,225.28z"/>
<path style="fill:#00E7FF;" d="M197.973,6.827V122.88h116.053C314.027,58.784,262.067,6.827,197.973,6.827z"/>
<path style="fill:#602F75;" d="M314.027,129.707H197.973c-3.773,0-6.827-3.053-6.827-6.827V6.827c0-3.773,3.053-6.827,6.827-6.827
	c67.753,0,122.88,55.127,122.88,122.88C320.853,126.653,317.8,129.707,314.027,129.707z M204.8,116.053h102.187
	C303.594,61.254,259.599,17.26,204.8,13.867V116.053z"/>
<g>
</g>
<g>
</g>
<g>
</g>
<g>
</g>
<g>
</g>
<g>
</g>
<g>
</g>
<g>
</g>
<g>
</g>
<g>
</g>
<g>
</g>
<g>
</g>
<g>
</g>
<g>
</g>
<g>
</g>
</svg>
