<svg id="Capa_1" enable-background="new 0 0 512 512" height="512" viewBox="0 0 512 512" width="512" xmlns="http://www.w3.org/2000/svg"><path d="m209.7 512h-84.648c-4.205 0-8.218-1.766-11.06-4.866-2.841-3.101-4.25-7.252-3.884-11.441l36.132-412.975c.679-7.748 7.166-13.692 14.943-13.692h196.687c35.688 0 68.12 13.944 91.322 39.265 23.313 25.442 34.426 59.193 31.29 95.036-3.085 35.254-19.651 68.342-46.649 93.167-27.012 24.838-61.321 38.518-96.609 38.518h-98.294l-14.286 163.297c-.679 7.747-7.166 13.691-14.944 13.691z" fill="#507be9"/><path d="m357.87 69.025h-101.873v265.985h81.227c35.288 0 69.598-13.68 96.609-38.518 26.998-24.825 43.564-57.913 46.649-93.167 3.136-35.843-7.977-69.594-31.29-95.036-23.201-25.319-55.634-39.264-91.322-39.264z" fill="#3266c8"/><path d="m130.645 442.975h-84.648c-4.205 0-8.218-1.766-11.06-4.866-2.841-3.101-4.25-7.252-3.884-11.441l36.132-412.976c.679-7.748 7.166-13.692 14.943-13.692h196.687c35.688 0 68.121 13.944 91.323 39.266 23.313 25.441 34.426 59.192 31.29 95.034-3.085 35.255-19.651 68.342-46.648 93.168-27.012 24.838-61.322 38.518-96.61 38.518h-98.295l-14.286 163.297c-.68 7.747-7.167 13.692-14.944 13.692z" fill="#7dbeff"/><path d="m278.815 0h-22.817v265.985h2.172c35.288 0 69.599-13.68 96.61-38.518 26.997-24.826 43.563-57.913 46.648-93.168 3.136-35.842-7.977-69.593-31.29-95.034-23.202-25.321-55.635-39.265-91.323-39.265z" fill="#6496f7"/><path d="m161.183 69.025c-7.777 0-14.265 5.944-14.943 13.692l-31.519 360.257h15.924c7.777 0 14.265-5.944 14.943-13.692l14.286-163.297h98.295c35.288 0 69.599-13.68 96.61-38.518 26.997-24.826 43.563-57.913 46.648-93.168 1.875-21.434-1.349-42.117-9.227-60.726-10.937-2.995-22.452-4.549-34.331-4.549h-196.686z" fill="#6496f7"/><path d="m357.87 69.025h-101.873v196.96h2.172c35.288 0 69.599-13.68 96.61-38.518 26.997-24.826 43.563-57.913 46.648-93.168 1.875-21.434-1.349-42.117-9.227-60.726-10.936-2.994-22.451-4.548-34.33-4.548z" fill="#507be9"/></svg>