<svg height="512pt" viewBox="0 -35 512 512" width="512pt" xmlns="http://www.w3.org/2000/svg"><path d="m486.789062 0h-461.578124c-13.902344 0-25.210938 11.308594-25.210938 25.210938v392.386718c0 13.898438 11.308594 25.210938 25.210938 25.210938h461.578124c13.902344 0 25.210938-11.3125 25.210938-25.210938v-392.386718c0-13.902344-11.308594-25.210938-25.210938-25.210938zm0 0" fill="#e0f4ff"/><path d="m512 25.210938c0-13.902344-11.308594-25.210938-25.210938-25.210938h-461.578124c-13.902344 0-25.210938 11.308594-25.210938 25.210938v98.984374h512zm0 0" fill="#47568c"/><path d="m486.789062 0h-230.789062v442.808594h230.789062c13.902344 0 25.210938-11.3125 25.210938-25.210938v-392.386718c0-13.902344-11.308594-25.210938-25.210938-25.210938zm0 0" fill="#bbdcff"/><path d="m512 25.210938c0-13.902344-11.308594-25.210938-25.210938-25.210938h-230.789062v124.195312h256zm0 0" fill="#2c3b73"/><path d="m464.445312 54.597656c0 10.648438-8.632812 19.28125-19.285156 19.28125-10.648437 0-19.28125-8.632812-19.28125-19.28125 0-10.648437 8.632813-19.28125 19.28125-19.28125 10.652344 0 19.285156 8.632813 19.285156 19.28125zm0 0" fill="#29daf8"/><path d="m408.464844 54.597656c0 10.648438-8.632813 19.28125-19.28125 19.28125-10.652344 0-19.285156-8.632812-19.285156-19.28125 0-10.648437 8.632812-19.28125 19.285156-19.28125 10.648437 0 19.28125 8.632813 19.28125 19.28125zm0 0" fill="#ffce00"/><path d="m352.484375 54.597656c0 10.648438-8.632813 19.28125-19.285156 19.28125-10.648438 0-19.28125-8.632812-19.28125-19.28125 0-10.648437 8.632812-19.28125 19.28125-19.28125 10.652343 0 19.285156 8.632813 19.285156 19.28125zm0 0" fill="#e63850"/><path d="m322.769531 359.921875h-133.539062c-8.285157 0-15-6.714844-15-15v-133.539063c0-8.28125 6.714843-15 15-15h44.949219c8.285156 0 15 6.71875 15 15 0 8.285157-6.714844 15-15 15h-29.949219v103.539063h103.539062v-29.949219c0-8.285156 6.714844-15 15-15 8.28125 0 15 6.714844 15 15v44.949219c0 8.285156-6.714843 15-15 15zm0 0" fill="#29daf8"/><path d="m322.769531 284.972656c-8.285156 0-15 6.714844-15 15v29.949219h-51.769531v30h66.769531c8.285157 0 15-6.71875 15-15v-44.949219c0-8.285156-6.714843-15-15-15zm0 0" fill="#00c1f1"/><path d="m333.375 200.777344c-2.832031-2.832032-6.71875-4.433594-10.691406-4.394532l-38.417969.21875c-8.28125.046876-14.960937 6.796876-14.914063 15.082032.046876 8.257812 6.753907 14.917968 14.996094 14.917968h.085938l1.917968-.011718-40.957031 40.957031c-5.859375 5.855469-5.859375 15.355469 0 21.210937 2.929688 2.929688 6.765625 4.394532 10.605469 4.394532s7.679688-1.464844 10.605469-4.394532l40.957031-40.957031-.011719 1.917969c-.042969 8.285156 6.632813 15.035156 14.917969 15.082031h.085938c8.242187 0 14.949218-6.660156 14.996093-14.914062l.21875-38.417969c.019531-4.007812-1.558593-7.855469-4.394531-10.691406zm0 0" fill="#29daf8"/><path d="m307.5625 247.800781-.011719 1.917969c-.042969 8.285156 6.632813 15.035156 14.917969 15.082031h.085938c8.242187 0 14.949218-6.660156 14.996093-14.914062l.21875-38.417969c.019531-4.007812-1.5625-7.855469-4.394531-10.691406-2.835938-2.832032-6.722656-4.433594-10.691406-4.394532l-38.417969.21875c-8.285156.046876-14.960937 6.796876-14.914063 15.082032.046876 8.257812 6.75 14.917968 14.996094 14.917968h.085938l1.917968-.011718-30.351562 30.351562v36.210938c3.839844 0 7.679688-1.464844 10.605469-4.394532zm0 0" fill="#00c1f1"/></svg>