<svg xmlns="http://www.w3.org/2000/svg" xmlns:xlink="http://www.w3.org/1999/xlink" viewBox="0 0 548 486.97"><defs><style>.cls-1{mask:url(#mask);filter:url(#luminosity-noclip-2);}.cls-2{mix-blend-mode:multiply;fill:url(#linear-gradient);}.cls-3{fill:url(#linear-gradient-2);}.cls-4{fill:#4d6593;}.cls-5{fill:#30beff;}.cls-6{fill:#dcfdff;}.cls-7{fill:#c9d2e3;}.cls-8{fill:#dae0ec;}.cls-9{fill:#3c4e71;}.cls-10{fill:#1f6bff;}.cls-11{fill:url(#linear-gradient-3);}.cls-12{fill:#ff9500;}.cls-13{fill:#f48500;}.cls-14{fill:url(#linear-gradient-4);}.cls-15{fill:url(#linear-gradient-5);}.cls-16{fill:url(#linear-gradient-6);}.cls-17{fill:#fc0;}.cls-18{fill:#ff9100;}.cls-19{fill:#0cd096;}.cls-20{fill:url(#linear-gradient-7);}.cls-21{mask:url(#mask-2);}.cls-22{fill:url(#linear-gradient-8);}.cls-23{fill:#3b4e71;}.cls-24{fill:url(#linear-gradient-9);}.cls-25{fill:url(#linear-gradient-10);}.cls-26{fill:url(#linear-gradient-11);}.cls-27{fill:url(#linear-gradient-12);}.cls-28{fill:url(#linear-gradient-13);}.cls-29{fill:url(#linear-gradient-14);}.cls-30{fill:url(#linear-gradient-15);}.cls-31{filter:url(#luminosity-noclip);}</style><filter id="luminosity-noclip" x="210.79" y="-8384.95" width="84.74" height="32766" filterUnits="userSpaceOnUse" color-interpolation-filters="sRGB"><feFlood flood-color="#fff" result="bg"/><feBlend in="SourceGraphic" in2="bg"/></filter><mask id="mask" x="210.79" y="-8384.95" width="84.74" height="32766" maskUnits="userSpaceOnUse"><g class="cls-31"/></mask><linearGradient id="linear-gradient" x1="210.79" y1="303.31" x2="295.53" y2="303.31" gradientUnits="userSpaceOnUse"><stop offset="0" stop-color="#fff"/><stop offset="0.12" stop-color="#c6c6c6"/><stop offset="0.24" stop-color="#929292"/><stop offset="0.37" stop-color="#656565"/><stop offset="0.5" stop-color="#414141"/><stop offset="0.62" stop-color="#242424"/><stop offset="0.75" stop-color="#101010"/><stop offset="0.88" stop-color="#040404"/><stop offset="1"/></linearGradient><linearGradient id="linear-gradient-2" x1="26.81" y1="107.24" x2="472.55" y2="107.24" gradientUnits="userSpaceOnUse"><stop offset="0" stop-color="#c9d2e3"/><stop offset="1" stop-color="#c9d2e3"/></linearGradient><linearGradient id="linear-gradient-3" x1="295.53" y1="273.55" x2="357.14" y2="273.55" xlink:href="#linear-gradient-2"/><linearGradient id="linear-gradient-4" y1="415.72" x2="50.63" y2="415.72" gradientUnits="userSpaceOnUse"><stop offset="0" stop-color="#869ac0"/><stop offset="0.98" stop-color="#869ac0"/></linearGradient><linearGradient id="linear-gradient-5" x1="52.62" y1="289.48" x2="182.75" y2="289.48" gradientUnits="userSpaceOnUse"><stop offset="0" stop-color="#c8d2e3"/><stop offset="1" stop-color="#c9d2e3"/></linearGradient><linearGradient id="linear-gradient-6" x1="41.8" y1="256.34" x2="55.89" y2="256.34" xlink:href="#linear-gradient-4"/><linearGradient id="linear-gradient-7" x1="290.29" y1="416.63" x2="304.91" y2="416.63" gradientUnits="userSpaceOnUse"><stop offset="0" stop-color="#0cd096"/><stop offset="1" stop-color="#0cd096"/></linearGradient><filter id="luminosity-noclip-2" x="210.79" y="253.43" width="84.74" height="99.75" filterUnits="userSpaceOnUse" color-interpolation-filters="sRGB"><feFlood flood-color="#fff" result="bg"/><feBlend in="SourceGraphic" in2="bg"/></filter><mask id="mask-2" x="210.79" y="253.43" width="84.74" height="99.75" maskUnits="userSpaceOnUse"><g class="cls-1"><path class="cls-2" d="M215.73,263.05c0-.43,79.8-9.62,79.8-9.62l-11.45,99.76-73.29-37.56Z"/></g></mask><linearGradient id="linear-gradient-8" x1="210.79" y1="303.31" x2="295.53" y2="303.31" gradientUnits="userSpaceOnUse"><stop offset="0" stop-color="#4d6593"/><stop offset="0.1" stop-color="#6e81a7"/><stop offset="0.25" stop-color="#9aa8c2"/><stop offset="0.4" stop-color="#bec7d8"/><stop offset="0.55" stop-color="#dbe0e9"/><stop offset="0.7" stop-color="#eff1f5"/><stop offset="0.85" stop-color="#fbfcfd"/><stop offset="1" stop-color="#fff"/></linearGradient><linearGradient id="linear-gradient-9" x1="458.98" y1="133.61" x2="461.87" y2="133.61" gradientUnits="userSpaceOnUse"><stop offset="0" stop-color="#dae0ec"/><stop offset="1" stop-color="#dae0ec"/></linearGradient><linearGradient id="linear-gradient-10" x1="38.26" y1="133.61" x2="41.15" y2="133.61" xlink:href="#linear-gradient-9"/><linearGradient id="linear-gradient-11" x1="-1069.07" y1="274.59" x2="-1052.65" y2="274.59" gradientTransform="matrix(-1, 0, 0, 1, -561.14, 0)" gradientUnits="userSpaceOnUse"><stop offset="0" stop-color="#869ac0"/><stop offset="1" stop-color="#c9d2e3"/></linearGradient><linearGradient id="linear-gradient-12" x1="-1109.14" y1="272.21" x2="-1092.27" y2="272.21" gradientTransform="matrix(-1, 0, 0, 1, -561.14, 0)" gradientUnits="userSpaceOnUse"><stop offset="0" stop-color="#c9d2e3"/><stop offset="1" stop-color="#869ac0"/></linearGradient><linearGradient id="linear-gradient-13" x1="-1063.8" y1="334.78" x2="-1010.18" y2="334.78" gradientTransform="matrix(-1, 0, 0, 1, -561.14, 0)" gradientUnits="userSpaceOnUse"><stop offset="0" stop-color="#c9d2e3"/><stop offset="0.22" stop-color="#c1ccdf"/><stop offset="0.55" stop-color="#acbad4"/><stop offset="0.96" stop-color="#8a9dc2"/><stop offset="1" stop-color="#869ac0"/></linearGradient><linearGradient id="linear-gradient-14" x1="-1105.82" y1="331.98" x2="-1039.63" y2="331.98" xlink:href="#linear-gradient-13"/><linearGradient id="linear-gradient-15" x1="-1068.34" y1="430.13" x2="-1014.24" y2="430.13" gradientTransform="matrix(-1, 0, 0, 1, -561.14, 0)" gradientUnits="userSpaceOnUse"><stop offset="0" stop-color="#1f6bff"/><stop offset="1" stop-color="#1f6bff"/></linearGradient></defs><title>Asset 1</title><g id="Layer_2" data-name="Layer 2"><g id="Object"><rect class="cls-3" x="26.81" y="1" width="445.74" height="212.48" rx="24.58"/><ellipse class="cls-4" cx="247.76" cy="477.8" rx="123.8" ry="9.17"/><path class="cls-4" d="M516.32,456.67c0,2.52-16.58,4.56-37,4.56s-37-2-37-4.56,16.58-4.55,37-4.55S516.32,454.16,516.32,456.67Z"/><path class="cls-5" d="M430.05,198.31V234a6.34,6.34,0,0,1-6.35,6.34H397.16l-4,8.55a.62.62,0,0,1-1.13,0l-4-8.55A6.35,6.35,0,0,1,381.7,234V198.31a6.36,6.36,0,0,1,6.36-6.36H423.7A6.35,6.35,0,0,1,430.05,198.31Z"/><path class="cls-6" d="M398.32,217c0,3.05-1.84,4.9-4.56,4.9s-4.37-2.08-4.37-4.73,1.78-4.87,4.52-4.87S398.32,214.44,398.32,217Zm-6.71.13c0,1.82.86,3.1,2.26,3.1s2.24-1.35,2.24-3.16c0-1.66-.8-3.1-2.25-3.1S391.61,215.32,391.61,217.13Z"/><path class="cls-6" d="M406.29,218.3a3.38,3.38,0,0,1-3.55,3.6,3.31,3.31,0,0,1-3.49-3.48,3.37,3.37,0,0,1,3.6-3.57A3.27,3.27,0,0,1,406.29,218.3Zm-4.87.07c0,1.16.48,2,1.37,2s1.34-.82,1.34-2c0-1-.38-2-1.34-2S401.42,217.38,401.42,218.37Z"/><path class="cls-6" d="M407.59,217.27c0-.89,0-1.64,0-2.26h1.82l.1.93h0a2.61,2.61,0,0,1,2.25-1.09c1.47,0,2.8,1.29,2.8,3.44,0,2.45-1.56,3.61-3.06,3.61a2.09,2.09,0,0,1-1.75-.77h0v3.35h-2.1Zm2.1,1.58a1.89,1.89,0,0,0,0,.44,1.27,1.27,0,0,0,1.23,1c.91,0,1.44-.76,1.44-1.91s-.48-1.89-1.41-1.89a1.33,1.33,0,0,0-1.26,1.07,1.45,1.45,0,0,0,0,.37Z"/><path class="cls-6" d="M415.83,219.91a4,4,0,0,0,1.8.51c.64,0,.9-.22.9-.56s-.21-.51-1-.77c-1.4-.47-1.93-1.23-1.92-2,0-1.25,1.08-2.21,2.74-2.21a4.51,4.51,0,0,1,1.91.39l-.38,1.45a3.22,3.22,0,0,0-1.46-.39c-.51,0-.8.21-.8.55s.26.49,1.09.77c1.28.45,1.82,1.09,1.83,2.09,0,1.25-1,2.17-2.92,2.17a4.87,4.87,0,0,1-2.18-.46Z"/><path class="cls-6" d="M421.59,220.64a1.24,1.24,0,1,1,1.24,1.26A1.19,1.19,0,0,1,421.59,220.64Zm.46-1.94-.32-6.24h2.19l-.3,6.24Z"/><path class="cls-7" d="M412.08,279.79s14-21.35,22.31-19c6,1.72,13.54,16.18,9.26,44.34S421,316,421,316l-12.07-34.27Z"/><path class="cls-7" d="M376.08,327s1.92,7.39-5.28,13.89-8.91,10.51-8.91,10.51l9.48,12.11,25-5.71,15.08-12.55L409.68,335l-21.85-15.65Z"/><path class="cls-8" d="M396.86,285.83A60.59,60.59,0,0,0,373.2,299c-5.58,5-8.16,10.75-9.85,13.78a6.46,6.46,0,0,0,.31,6.82,16.67,16.67,0,0,0,7.83,5.79c6.6,2.59,16.81,4.4,21.42,5.13a6.5,6.5,0,0,0,4.43-.9l11.8-7.28a6.54,6.54,0,0,0,2.92-4l3.05-12.55a6.51,6.51,0,0,0-1.32-5.7L403.7,287.93a6.52,6.52,0,0,0-6.84-2.1Z"/><path class="cls-9" d="M412.45,269.43s-17,9.94-15.59,16.4,8,12.77,3.51,16.54-5.86,3.17-7.91,7.11c-1.52,2.9-.38,5,1.22,3.27s6.49-5.32,10.6-1.5c2.68,2.49,2.77,10.74-2.95,11-8.81.44-18.62,1.34-19.6,6.13-.51,2.45,6.63,12.27,17.87,12.44S423.94,335,423.94,335l13.71-11.14L433,315.65s2.91-12.68-3.43-19.88S416.94,288,414,283.94C409.67,277.94,412.45,269.43,412.45,269.43Z"/><path class="cls-10" d="M397.08,347s-17.59-8.46-27.65-2.29-18.05,28.57-59.19,25.14-78.61-15.77-78.61-15.77l-22.86,44.11,23.77,10.51,113.12-9.83,51.42-26.73,11.2-16Z"/><path class="cls-10" d="M332.92,359.19l29-21.26s10.34,18.34,24.8,25.54l14.45,7.2-53.3,12.68s-4.58-4.68-11.89-18.05C334.26,362.2,332.92,359.19,332.92,359.19Z"/><path class="cls-11" d="M338.42,355.15s-21.09-27.33-24.52-42.75-6.4-62-10.29-66.85-8.79-6.74-8-12.57,3.88-14.85,9-17.37c3.87-1.89-1.74-24,1.83-23.65,2.52.23,5.14,20.11,7,22.85S318.7,227,319,231.15s-.86,6.17,0,12.86,9.94,56.39,17,67.81,21.07,29.6,21.07,29.6Z"/><path class="cls-12" d="M228,361.21l-56.48-25.33L145.93,377s8.74,4.46,23.31,6.34S196,396.21,196,396.21l12.79,2Z"/><polygon class="cls-13" points="164.46 341.42 154.16 325.08 186.94 300.86 229.51 358.19 227.95 361.21 171.47 335.88 167.37 342.48 164.32 343.25 164.46 341.42"/><path class="cls-14" d="M27.38,406.5S-2.16,394.55.13,399.81,35.78,433.75,40.46,433s10.17-9.83,10.17-9.83Z"/><path class="cls-15" d="M182.75,304s-1.63-10.41-36.82-16.81-77.63-14.95-81-16.74c-2.68-1.43-9.47-17.33-10.65-12.74-1.31,5.1-3.66,27.43,1.6,28.8s5.71-.46,12.57,1.6,30,14.39,54,17c19.47,2.08,26.68,7.25,29.65,10.45s6.06,6.64,6.06,6.64Z"/><path class="cls-16" d="M55.52,257.06s-7.86-39.85-9.23-30.48-8,59.42-2.06,60.56a26.5,26.5,0,0,0,11.66-.68Z"/><path class="cls-8" d="M433,315.65s-2.23,2.34-7.88-4.8c-1.54-1.93-4.71-1.54-9.77,3-7.14,6.45-9.09,11.24-2.29,14.51s17.37,5.6,17.37,5.6Z"/><path class="cls-8" d="M432.55,315.18c-.13-.08.19,3.72-1.59,1.89-1.41-1.46-3.38-9.3-3.55-10.16-.62-3.1,2-2.31,4.07,1.67S432.55,315.18,432.55,315.18Z"/><path class="cls-7" d="M167.37,342.48l-17,27.41L149.07,372l-5.2-2.42c-4.41-2.06-10.71,2.72-16.68,7.78-3.31,2.8-6.53,5.69-9.27,7.55-3.93,2.67-10.47,6.39-17.79,10.33C83.84,404,63.73,413.8,60.06,415.58c-5.32,2.57-5.09,5.26-9.43,7.54S29.15,411,27.09,407.58s7.55,2.51,18.06,1.14c5.2-.68,22.51-13.35,40.71-27.35,7.5-5.78,15.16-11.78,22.18-17.25,5.08-4,9.84-7.68,14-10.82s7.86-5.91,10.44-7.65C149.36,334.22,167.37,342.48,167.37,342.48Z"/><path class="cls-17" d="M111.49,345.88q5.19,3.84,10.51,7.42c-4.12,3.14-8.88,6.85-14,10.82a282,282,0,0,1-32.75-28.89,197.2,197.2,0,0,1-22-27.09,201.25,201.25,0,0,1-11.81-19.91c-.23-1.7-.42-3.4-.59-5.11l-2.64-24.89a203.79,203.79,0,0,0,16.93,30.5,197.25,197.25,0,0,0,22,27.08A281.31,281.31,0,0,0,111.49,345.88Z"/><path class="cls-17" d="M461.3,258.23l-.58,15.55a177.68,177.68,0,0,1-1.93,20.43c0-.34,0-.68,0-1l.58-15.55c-9.13,22.48-8.92,34.63-39.77,68.22-39.39,42.9-98.72,60.3-157.72,65.69l-3.93.33c-47.39,3.69-91.83-10.1-130.81-34.57,6-5.06,12.27-9.84,16.68-7.78l5.2,2.42,1.28-2.06c33.59,16.83,70.56,25.61,109.53,22.58l3.94-.33c59-5.39,118.32-22.79,157.72-65.69C452.39,292.86,452.18,280.71,461.3,258.23Z"/><path class="cls-4" d="M204,323.52l53.21,37.37a.53.53,0,0,0,.75-.13l1.6-2.37a.54.54,0,0,0-.14-.74l-53.26-37.46a.54.54,0,0,0-.76.16l-1.55,2.45A.53.53,0,0,0,204,323.52Z"/><path class="cls-4" d="M205.37,320.35l6.07-62.72a.81.81,0,0,1,.87-.73l3.16.28a.81.81,0,0,1,.73.88l-5.81,61.79a1.11,1.11,0,0,1-1.25,1Z"/><path class="cls-18" d="M108,364.12c-7,5.47-14.68,11.47-22.18,17.25-23.5-25.3-39.62-56.74-44.34-93.14a201.25,201.25,0,0,0,11.81,19.91,197.2,197.2,0,0,0,22,27.09A282,282,0,0,0,108,364.12Z"/><path class="cls-18" d="M459.42,277.64l-.58,15.55c0,.34,0,.68,0,1-7.68,50.49-36.62,95.84-80.43,123.23q-2.36,1.49-4.73,2.85-2.67,1.56-5.4,3-3.15,1.73-6.35,3.34c-86,43.72-195.22,26.72-261.75-31.48,7.32-3.94,13.86-7.66,17.79-10.33,2.74-1.86,6-4.75,9.27-7.55,39,24.47,83.42,38.26,130.81,34.57l3.93-.33c59-5.39,118.33-22.79,157.72-65.69C450.5,312.27,450.29,300.12,459.42,277.64Z"/><path class="cls-19" d="M289.79,422.65c-.31-3.18-1.3-12.26-1.63-15.3a1,1,0,0,1,.9-1.12l15.36-1.72a1,1,0,0,1,1.13.94l1,14.15a1,1,0,0,1-.82,1.07L291,423.55A1,1,0,0,1,289.79,422.65Z"/><path class="cls-20" d="M291.14,421.27c-.25-2.35-.58-5.46-.83-7.74a3.11,3.11,0,0,1,2.76-3.43l7.88-.89a3.12,3.12,0,0,1,3.46,2.89l.49,7.14a3.12,3.12,0,0,1-2.51,3.28L294.84,424A3.11,3.11,0,0,1,291.14,421.27Z"/><g class="cls-21"><path class="cls-22" d="M215.73,263.05c0-.43,79.8-9.62,79.8-9.62l-11.45,99.76-73.29-37.56Z"/></g><path class="cls-4" d="M281.14,435.87,265.2,388.31a1.1,1.1,0,0,1,.52-1.32l1.7-.9a1.1,1.1,0,0,1,1.56.62l16.25,48.36Z"/><path class="cls-4" d="M283.22,437c-.34-1.7-3.06-28-3.68-33.94a1.09,1.09,0,0,1,1.09-1.2h1.62a1.09,1.09,0,0,1,1.08,1l3.7,33.43Z"/><path class="cls-23" d="M259.62,423.58l55.05-10.8h0c-8.64,30.31-35.66,34.09-55.05,10.8Z"/><path class="cls-24" d="M460.43,267.22a1.44,1.44,0,0,1-1.45-1.44V1.44a1.45,1.45,0,0,1,2.89,0V265.78A1.43,1.43,0,0,1,460.43,267.22Z"/><path class="cls-25" d="M39.71,267.22a1.44,1.44,0,0,1-1.45-1.44V1.44a1.45,1.45,0,0,1,2.89,0V265.78A1.44,1.44,0,0,1,39.71,267.22Z"/><path class="cls-26" d="M491.51,275.7s5.94-1.26,10.16,2.31a27.63,27.63,0,0,1,6.24,7.46s.29-9.11-1.11-13.48c-2.41-7.48-4.11-8.29-4.11-8.29l-10.92,8Z"/><path class="cls-27" d="M531.14,271.34s6.43-.45,10.34,3.94a29.29,29.29,0,0,1,5.46,8.78s1.66-9.55.83-14.36c-1.42-8.22-3.08-9.33-3.08-9.33L532,267.21Z"/><path class="cls-28" d="M452.5,342.55c10.82,25.53,7.35,63.3,7.35,63.3l17-2.4a46.56,46.56,0,0,0,4.71-11.94l-.4-.69c-1.44-2.49-7.42-3.19-7.42-3.19s-.24-.42,2.1-1.4a23.27,23.27,0,0,1,7.2-1.54,94.59,94.59,0,0,0,.35-27.6c-.87-6.82-1.78-13.2-2.56-19.2-2.55-1-6.64-.38-6.64-.38s-.33-.36,1.69-1.89a20.52,20.52,0,0,1,4.36-2.47c-1.84-15.33-2.41-28.14,1.7-39.83-2.53-1.09-6.87-.47-6.87-.47s-.32-.36,1.69-1.89a24.42,24.42,0,0,1,7.8-3.69l.19-.37c9.63-18.19,17.37-22.88,17.9-23.18-.68.2-14.06,4.46-30.74,18.47C458.57,293.41,441.68,317,452.5,342.55Z"/><path class="cls-7" d="M466.55,412.22a.67.67,0,0,1-.24,0,.72.72,0,0,1-.44-.92c4.76-13.58,6.93-50.73-.52-78s14.47-52.52,14.7-52.77a.72.72,0,0,1,1.08.95c-.22.25-21.63,24.88-14.38,51.44,7.52,27.54,5.31,65.1.48,78.86A.71.71,0,0,1,466.55,412.22Z"/><path class="cls-29" d="M478.49,403.6h18.27s3.34-3.91,6.72-11.87h0c-.09-.23-.19-.49-.31-.78-1.15-2.83-7.34-4.45-7.34-4.45s-.18-.48,2.43-1.16a24.56,24.56,0,0,1,7.79-.55,100.06,100.06,0,0,0,4.47-29c.11-7.32.1-14.16.17-20.59-2.55-1.39-6.93-1.39-6.93-1.39s-.3-.42,2.05-1.74a22,22,0,0,1,4.95-1.95c.34-16.4,1.64-30,7.71-41.65-2.5-1.53-7.16-1.53-7.16-1.53s-.29-.42,2.06-1.73a26.06,26.06,0,0,1,8.76-2.73l.25-.36c13.29-18.35,22.31-21.75,22.31-21.75s-15,2.3-35.12,14.89c-15.73,9.83-37,32.17-29.42,60.64S478.49,403.6,478.49,403.6Z"/><path class="cls-7" d="M490.12,410.17a.76.76,0,0,1-.33-.08.72.72,0,0,1-.31-1c6.93-13.4,9.51-50.53,5.63-81.09-3.79-29.84,23-53.08,23.28-53.31a.72.72,0,0,1,1,.08.73.73,0,0,1-.08,1c-.27.22-26.48,23-22.79,52,3.91,30.8,1.26,68.32-5.78,81.94A.72.72,0,0,1,490.12,410.17Z"/><path class="cls-30" d="M507.2,403.59H453.11l14.23,52.83s23.57.46,23.88.14S507.2,403.59,507.2,403.59Z"/></g></g></svg>