<svg xmlns="http://www.w3.org/2000/svg" xmlns:xlink="http://www.w3.org/1999/xlink" viewBox="0 0 252.59 201.76"><defs><style>.cls-1{fill:url(#linear-gradient);}.cls-2{fill:url(#linear-gradient-2);}.cls-3{fill:#c9d2e3;}.cls-4{fill:url(#linear-gradient-3);}.cls-5{fill:#35465b;}.cls-6{fill:#dae0ec;}.cls-7{fill:#a8b6d1;}.cls-8{fill:#9cc2ff;}.cls-9{fill:#1f6bff;}.cls-10{fill:#abcbff;}.cls-11{fill:#fc0;}.cls-12{fill:#66a4ff;}.cls-13{fill:#92bcff;}.cls-14{fill:#8888ba;}.cls-15{fill:#212837;}.cls-16{fill:#ebeef4;}.cls-17{fill:#640df3;}.cls-18{fill:#884aff;}.cls-19{fill:#4400c6;}.cls-20{fill:#ff9500;}.cls-21{fill:#fff;}.cls-22{fill:#fbb03b;}.cls-23{fill:#3c4e71;}.cls-24{fill:#ffae43;}.cls-25{fill:#4d6593;}.cls-26{fill:#ff8500;}</style><linearGradient id="linear-gradient" x1="137.19" y1="208.82" x2="137.19" y2="188.22" gradientUnits="userSpaceOnUse"><stop offset="0" stop-color="#f0f0fa"/><stop offset="1" stop-color="#869ac0"/></linearGradient><linearGradient id="linear-gradient-2" x1="-2264.3" y1="43" x2="-2260.7" y2="188.44" gradientTransform="translate(2385.01)" gradientUnits="userSpaceOnUse"><stop offset="0" stop-color="#f0f0fa"/><stop offset="1" stop-color="#dae0e9"/></linearGradient><linearGradient id="linear-gradient-3" x1="-881.34" y1="1888.26" x2="-870.28" y2="2054.13" gradientTransform="matrix(0.98, -0.22, -0.22, -0.98, 1385.82, 1885.46)" gradientUnits="userSpaceOnUse"><stop offset="0" stop-color="#f0f0fa"/><stop offset="1" stop-color="#dae0ec"/></linearGradient></defs><title>Asset 5</title><g id="Layer_2" data-name="Layer 2"><g id="Layer_1-2" data-name="Layer 1"><ellipse class="cls-1" cx="137.19" cy="192.58" rx="115.4" ry="6.33"/><path class="cls-2" d="M212.62,191C221,174.31,222,153.09,222,130c0-110-74.48-74.48-97.61-32.05C98.56,145.27,47.17,74.23,26.76,130,18.82,151.68,30,174.31,40,191Z"/><ellipse class="cls-3" cx="84.36" cy="18.28" rx="13.29" ry="24.48" transform="translate(18.37 73.93) rotate(-52.37)"/><path class="cls-3" d="M94.32,168.81A79.49,79.49,0,0,0,198.68,48.88C165.56,20.06,95.87,0,100.66,69,103.7,112.75,61.2,140,94.32,168.81Z"/><path class="cls-4" d="M18.85,138.5C41.19,194,97.91,199.7,137,176.54s49.47-77.72,23.28-121.88-56.83,25-96.55-34.93C36.23-21.7-.33,90.87,18.85,138.5Z"/><rect class="cls-5" x="51.34" y="76.66" width="154.88" height="107.26" rx="4.9"/><path class="cls-5" d="M173,193.23l-6.51-3.1a1.35,1.35,0,0,0-.56-.13H139.55v-6.07H118V190H91.75a1.31,1.31,0,0,0-.55.13l-6.59,3.09a1.31,1.31,0,0,0,.56,2.5h87.22A1.31,1.31,0,0,0,173,193.23Z"/><polygon class="cls-6" points="194.11 83.08 179.28 83.08 178.6 83.08 165.27 83.08 152.66 83.08 124.44 83.08 57.79 83.08 57.79 140.8 57.79 150.72 57.79 169.99 66.91 169.99 87.12 169.99 95.13 169.99 101.95 169.99 107.73 169.99 121.06 169.99 199.76 169.99 199.76 150.72 199.76 140.8 199.76 83.08 194.11 83.08"/><rect class="cls-7" x="69.21" y="101.62" width="119.13" height="63.66"/><path class="cls-7" d="M183.87,89H73.68a4.47,4.47,0,0,0-4.47,4.46v8.19H188.34V93.43A4.47,4.47,0,0,0,183.87,89Z"/><path class="cls-6" d="M78.23,95A1.93,1.93,0,1,1,76.3,93,1.92,1.92,0,0,1,78.23,95Z"/><path class="cls-6" d="M85.15,95A1.93,1.93,0,1,1,83.22,93,1.93,1.93,0,0,1,85.15,95Z"/><path class="cls-6" d="M92.06,95A1.92,1.92,0,1,1,90.14,93,1.92,1.92,0,0,1,92.06,95Z"/><rect class="cls-6" x="131.69" y="105.04" width="54.08" height="1.5"/><rect class="cls-6" x="131.69" y="109.42" width="27.04" height="1.5"/><rect class="cls-6" x="131.69" y="113.8" width="27.04" height="1.5"/><rect class="cls-6" x="131.69" y="147.4" width="54.08" height="1.5"/><rect class="cls-6" x="131.69" y="151.78" width="27.04" height="1.5"/><rect class="cls-6" x="131.69" y="156.17" width="27.04" height="1.5"/><rect class="cls-6" x="131.69" y="133.75" width="54.08" height="1.5"/><rect class="cls-6" x="131.69" y="138.13" width="27.04" height="1.5"/><rect class="cls-6" x="131.69" y="142.51" width="27.04" height="1.5"/><rect class="cls-6" x="131.69" y="119.39" width="54.08" height="1.5"/><rect class="cls-6" x="131.69" y="123.78" width="27.04" height="1.5"/><rect class="cls-6" x="131.69" y="128.16" width="27.04" height="1.5"/><rect class="cls-6" x="72.53" y="105.04" width="54.83" height="3.74" transform="translate(199.89 213.82) rotate(180)"/><rect class="cls-6" x="72.53" y="111.93" width="54.83" height="45.74"/><path class="cls-8" d="M242.33,169.28a11.51,11.51,0,0,1-1.78-2.52,6.24,6.24,0,0,1,.06-4.24c.42-1.38,1.07-2.68,1.44-4.08a10.85,10.85,0,0,0-2.42-9.91,16.32,16.32,0,0,1-1.57-1.76,7.55,7.55,0,0,1-.75-5.3,26.26,26.26,0,0,0,.67-5.42,8.14,8.14,0,0,0-2.91-5.73,9.68,9.68,0,0,0-6.06-1.88h-.14a9.68,9.68,0,0,0-6.09,1.82,8.12,8.12,0,0,0-3,5.69,26.35,26.35,0,0,0,.61,5.43,7.5,7.5,0,0,1-.81,5.28,16.41,16.41,0,0,1-1.59,1.75,10.81,10.81,0,0,0-2.53,9.88c.35,1.4,1,2.71,1.39,4.1a6.27,6.27,0,0,1,0,4.23,11.3,11.3,0,0,1-1.81,2.5c-2.4,3-3.44,7.44-1.36,10.64a10.82,10.82,0,0,0,3.35,3.07,20,20,0,0,0,6.52,2.82,6.78,6.78,0,0,0,3.1.16,21.85,21.85,0,0,1,3.85,0,6.78,6.78,0,0,0,3.1-.13,19.76,19.76,0,0,0,6.54-2.75,10.73,10.73,0,0,0,3.39-3C245.69,176.75,244.7,172.28,242.33,169.28Z"/><path class="cls-9" d="M239.7,166.18l-10,10.7-.35-21,7.49-10-7.53,8.07-.21-12.8,5.41-7.2-5.43,5.82-.16-9-.18,11.54-5.2-5.7,5.18,7.06-.2,13-7.44-8.16,7.41,10.1-.34,21.33L218,168.78l10.12,13.79-.05,3.15h1.79l-.11-6.31C231.69,176.84,239.7,166.18,239.7,166.18Z"/><rect class="cls-10" x="228.08" y="185.72" width="1.79" height="3.44"/><polygon class="cls-10" points="221.04 189.2 236.92 189.2 233.94 201.76 224.06 201.76 221.04 189.2"/><rect class="cls-9" x="221.04" y="188.25" width="15.88" height="0.95"/><polygon class="cls-11" points="202.24 91.79 198.46 93.85 202.24 95.92 204.3 99.7 206.37 95.92 210.15 93.85 206.37 91.79 204.3 88.01 202.24 91.79"/><polygon class="cls-11" points="193.08 98.5 190.89 99.7 193.08 100.89 194.28 103.08 195.47 100.89 197.66 99.7 195.47 98.5 194.28 96.31 193.08 98.5"/><path class="cls-7" d="M44.79,111H42.84a1,1,0,0,1-1-.73,8.6,8.6,0,0,0-.51-1.21,1,1,0,0,1,.2-1.22l1.38-1.38a1.06,1.06,0,0,0,0-1.49l-.84-.84a1.06,1.06,0,0,0-1.49,0l-1.38,1.38a1.05,1.05,0,0,1-1.22.19,7.62,7.62,0,0,0-1.22-.5,1,1,0,0,1-.72-1v-1.95a1,1,0,0,0-1-1.05H33.81a1,1,0,0,0-1.05,1.05v1.95a1,1,0,0,1-.73,1,7.52,7.52,0,0,0-1.21.5,1,1,0,0,1-1.22-.19l-1.38-1.38a1.06,1.06,0,0,0-1.49,0l-.84.84a1.06,1.06,0,0,0,0,1.49l1.38,1.38a1,1,0,0,1,.19,1.22,7.52,7.52,0,0,0-.5,1.21,1,1,0,0,1-1,.73H24a1,1,0,0,0-1.05,1v1.19a1,1,0,0,0,1.05,1H26a1,1,0,0,1,1,.72,7.62,7.62,0,0,0,.5,1.22,1.05,1.05,0,0,1-.19,1.22l-1.38,1.38a1.06,1.06,0,0,0,0,1.49l.84.84a1.06,1.06,0,0,0,1.49,0l1.38-1.38a1,1,0,0,1,1.22-.2,8.6,8.6,0,0,0,1.21.51,1,1,0,0,1,.73,1v2a1.05,1.05,0,0,0,1.05,1.06H35a1.05,1.05,0,0,0,1-1.06v-2a1,1,0,0,1,.72-1,8.72,8.72,0,0,0,1.22-.51,1,1,0,0,1,1.22.2l1.38,1.38a1.06,1.06,0,0,0,1.49,0l.84-.84a1.06,1.06,0,0,0,0-1.49l-1.38-1.38a1,1,0,0,1-.2-1.22,8.72,8.72,0,0,0,.51-1.22,1,1,0,0,1,1-.72h1.95a1.05,1.05,0,0,0,1.06-1v-1.19A1.05,1.05,0,0,0,44.79,111Zm-6.41,2.44a4.05,4.05,0,1,1-4.77-4.77A4.06,4.06,0,0,1,38.38,113.45Z"/><path class="cls-9" d="M2.91,171.22c-.93,1.7-2.91.51-2.91.51s.11-.56,1-1a2.72,2.72,0,0,1,2,.06l1.1,0h0l.73,0C1.68,169.69,3.15,166,3.15,166a3,3,0,0,1,2,1.43c.83,1.11.5,3,.41,3.46a17.81,17.81,0,0,1,3.59.9,5.57,5.57,0,0,1-.45-.49c-1.19-1.42-.67-4.12-.67-4.12,4.27.54,3.42,4.55,3.17,5.47a26.84,26.84,0,0,1,3.85,2.3,5.51,5.51,0,0,1-.84-1.86c-.54-2,1.26-4.5,1.26-4.5,4.18,2.62,1.18,6.42.59,7.1.75.58,1.44,1.16,2.05,1.72s1.31,1.23,1.88,1.82a5.66,5.66,0,0,1-.22-2.71c.3-2.25,3.18-4,3.18-4,3,4.31-1.32,6.86-2.34,7.39a34.27,34.27,0,0,1,3.07,3.76l-.37.26s-.75-1.1-2-2.61c-1.61,5.1-7.17,2.51-7.17,2.51s.14-1.4,2.2-2.76c1.33-.88,3.3-.66,4.37-.44a40.48,40.48,0,0,0-2.86-2.88c-.36-.32-.75-.66-1.16-1-1.43,4.83-6.58,2.41-6.58,2.41s.12-1.27,2-2.52a5.59,5.59,0,0,1,3.92-.42,29.12,29.12,0,0,0-4-2.66c-.88,4.56-5.74,2.72-5.74,2.72a3.56,3.56,0,0,1,1.62-2.39,5.14,5.14,0,0,1,3.57-.62,19.72,19.72,0,0,0-5.21-1.81c.07,4.13-4.4,3.33-4.4,3.33a3,3,0,0,1,1-2.26,4.75,4.75,0,0,1,3.26-1.1,18.34,18.34,0,0,0-2-.23Z"/><path class="cls-12" d="M39.07,195.8s9.3-21,2.57-40.47-23-25.19-23-25.19,9.64,11.16,4,28.57c-5.29,16.46,4.8,37.09,4.8,37.09Z"/><path class="cls-9" d="M35.79,195.8s2.38-42.67-7.69-53.9c9.16,14.15,5.34,53.9,5.34,53.9Z"/><path class="cls-13" d="M19.82,195.8h9.94a26,26,0,0,0-5.39-11,12.66,12.66,0,0,0-9.8-4.38A16.18,16.18,0,0,1,18,189.52,17.88,17.88,0,0,0,19.82,195.8Z"/><path class="cls-13" d="M42.81,172.6c-7.24,9.43-8.86,21.73-9,23.2H47.84c3.56-3.28,7.93-8.6,8-15,.06-11.42,5.36-18.19,5.36-18.19A24.72,24.72,0,0,0,42.81,172.6Z"/><path class="cls-9" d="M26.54,195.8h.74c-1.41-3.24-5-10.83-8.4-12.38C22.19,185.64,25.23,192.51,26.54,195.8Z"/><path class="cls-9" d="M38.22,195.8h1.46c1.71-5.66,7-21.44,13.56-26.64C46.41,172.94,40,190.45,38.22,195.8Z"/><rect class="cls-14" x="14.03" y="195.8" width="41.94" height="1.66"/><path class="cls-15" d="M201.78,124.74a2.48,2.48,0,0,0-1.16-1,23.86,23.86,0,0,1-2.46-1.28,5.83,5.83,0,0,1-.75-.65l-.06.65L195,124.86l-1.42.14a3.51,3.51,0,0,0,1.51,1.17c.58.2,1.24-.09,1.85.1a2.39,2.39,0,0,1,1.35,1.11,7,7,0,0,1,.34,3.18,1.53,1.53,0,0,0,.11.63c.09.2-.14,1,.08,1s.6-1,.81-1.2a4.15,4.15,0,0,0,.83-1.32c.22-.58.2-.6.4-1.09s.4-1.28.68-1.89A2.43,2.43,0,0,0,201.78,124.74Z"/><path class="cls-16" d="M188.76,130.53s-.09-1.17-.11-1.33a6.3,6.3,0,0,1,.34-1c0-.17,0-.41-.18-.28a2.47,2.47,0,0,0-.29.53l-.25,1-.11.65-.58-.34V134l1.68-.13Z"/><path class="cls-17" d="M188.94,121.57s-5.39-3.35-6.35-4.68a16.49,16.49,0,0,1-1.67-3.54c.22-3.5-.92-6.35-3.08-7-2.92-.94-6.61,2.44-8.25,7.55s-.59,10,2.34,10.94c1.8.57,3.89-.49,5.61-2.58a6.64,6.64,0,0,1,3.57.77c1.91,1.24,4.89,3.13,4.89,3.13l.21,4.25a7.47,7.47,0,0,0,1.42,1.59,2,2,0,0,0,1.37,0l.26-.42-.81-1.78.37-2.85s1.78-1,2.11-2.15S190.46,122.55,188.94,121.57Z"/><path class="cls-18" d="M179.26,117c-1.45,4.52-4.59,7.57-7,6.79s-3.21-5.07-1.76-9.6,4.59-7.56,7-6.79S180.71,112.43,179.26,117Z"/><path class="cls-19" d="M179.47,116.26l-2.66-1-1.12,3.45,2.13,1.41A12.81,12.81,0,0,0,179.47,116.26Z"/><path class="cls-17" d="M177.25,117.33c-.3,1-1,1.58-1.6,1.39s-.81-1.11-.5-2.07,1-1.58,1.61-1.39S177.56,116.37,177.25,117.33Z"/><path class="cls-16" d="M185.71,127.08c0-.15.31-.21.32-.21h0l0,.53h0S185.67,127.24,185.71,127.08Z"/><path class="cls-16" d="M185.78,127.68c0-.09.26-.18.27-.18h0v.18a1,1,0,0,1,.42.31.21.21,0,0,1-.07.25.12.12,0,0,1-.14,0l-.19-.09v.08a1,1,0,0,1,.42.31.22.22,0,0,1-.09.27.1.1,0,0,1-.1,0l-.21-.09v.09a.72.72,0,0,1,.3.21.15.15,0,0,1-.06.19l0,0h0l-.24-.11a.25.25,0,0,1-.12-.3c0-.05.11-.1.16-.12l-.1-.05a.37.37,0,0,1-.16-.42c0-.06.1-.11.18-.15h0A.38.38,0,0,1,185.78,127.68Z"/><rect class="cls-16" x="196.24" y="129.22" width="3.53" height="4.66"/><path class="cls-20" d="M199.71,131.81s5.28,1.76,6.27,2.5,6.6,8.37,6.72,9.21-4.61,9.48-4.61,9.48l-1.65-1.14,2.55-7.79-4.1-3.29.12,16.65-12.92-.06.93-17.89L188.49,141a.72.72,0,0,1-1-.62l-.35-6.67,2-.27.87,2.68,6.17-3.27S195.55,134.69,199.71,131.81Z"/><path class="cls-16" d="M207.79,152.78a6.63,6.63,0,0,0-.59,1.51,2.9,2.9,0,0,1-.92,2.09c-.76.62-2.56.56-2.44.15s.85-.92.82-1.33-.44-.53-.09-.88,1.09-.59,1.28-1.07.64-1.38.64-1.38Z"/><path class="cls-16" d="M194.1,126.12s-.68,4.58.63,5.45,3.29-.1,4-.52a4.05,4.05,0,0,0,1.19-1.42,2.9,2.9,0,0,0,.6-1.25c0-.55.08-1.27-.46-1-.87.47-.45.09-.45.09a1.09,1.09,0,0,0-.18-1.27C198.87,125.48,194.39,123.62,194.1,126.12Z"/><path class="cls-16" d="M206.66,194.14l0,1.52-2,0,0-1.51Z"/><path class="cls-15" d="M207.14,195.13l4.44,2.33.48.13a.75.75,0,0,1,.6.74,1,1,0,0,1,0,.24c0,.06-8.45-.16-8.45-.16s-.15-2.7.3-2.8S206.45,195.9,207.14,195.13Z"/><polygon class="cls-21" points="209.63 196.44 209.22 197.14 209.49 197.3 209.91 196.58 209.63 196.44"/><polygon class="cls-21" points="210.12 196.69 209.72 197.37 209.99 197.52 210.39 196.84 210.12 196.69"/><polygon class="cls-21" points="210.57 196.93 210.2 197.58 210.46 197.74 210.85 197.08 210.57 196.93"/><path class="cls-16" d="M192.37,194.2l-.15,1.52,2,0,.1-1.51Z"/><path class="cls-15" d="M191.71,195.19l-4.46,2.27-.48.13a.74.74,0,0,0-.61.73.6.6,0,0,0,0,.24c0,.07,8.45-.06,8.45-.06s.17-2.71-.27-2.81S192.39,196,191.71,195.19Z"/><polygon class="cls-21" points="189.21 196.46 189.61 197.18 189.34 197.33 188.93 196.61 189.21 196.46"/><polygon class="cls-21" points="188.72 196.71 189.1 197.39 188.84 197.55 188.44 196.86 188.72 196.71"/><polygon class="cls-21" points="188.26 196.95 188.63 197.6 188.36 197.76 187.99 197.09 188.26 196.95"/><polygon class="cls-15" points="192.3 157.34 191.57 194.42 194.43 194.32 200.26 157.38 192.3 157.34"/><polygon class="cls-15" points="196.44 158.13 204.36 194.42 207.7 194.42 204.98 157.4 196.13 157.37 196.44 158.13"/><path class="cls-11" d="M200.53,127.17l-8.57-2s-.07-.89,1.32-.66.5-2.53,3.65-3.22a4.34,4.34,0,0,1,5.08,2.58c.3.91-.49,3.6-.49,3.6Z"/><path class="cls-22" d="M163.64,198.58h18.2a.91.91,0,0,0,.84-1.28l-.43-1a.92.92,0,0,0-.83-.53H164a.93.93,0,0,0-.87.62l-.31.94A.91.91,0,0,0,163.64,198.58Z"/><path class="cls-11" d="M174,178.59a1.17,1.17,0,0,0-2.3,0l-.86,2.6h4Z"/><polygon class="cls-11" points="175.91 184.44 169.72 184.44 168.9 186.88 176.72 186.88 175.91 184.44"/><polygon class="cls-11" points="167.82 190.13 167 192.57 178.62 192.57 177.81 190.13 167.82 190.13"/><polygon class="cls-20" points="174.83 181.19 170.8 181.19 169.72 184.44 175.91 184.44 174.83 181.19"/><polygon class="cls-20" points="176.72 186.88 168.9 186.88 167.82 190.13 177.81 190.13 176.72 186.88"/><polygon class="cls-20" points="165.92 195.82 179.7 195.82 178.62 192.57 167 192.57 165.92 195.82"/><rect class="cls-15" x="51.15" y="138.91" width="6.45" height="59.67"/><rect class="cls-15" x="100.37" y="138.65" width="6.45" height="59.67"/><polygon class="cls-20" points="81.25 180.6 88.94 180.6 94.84 165.14 87.15 165.14 81.25 180.6"/><polygon class="cls-20" points="63.12 180.6 70.82 180.6 76.72 165.14 69.03 165.14 63.12 180.6"/><polygon class="cls-20" points="44.69 180.6 52.69 180.6 58.6 165.14 44.69 165.14 44.69 180.6"/><polygon class="cls-20" points="105.27 165.14 99.37 180.6 113.27 180.6 113.27 165.14 105.27 165.14"/><polygon class="cls-11" points="58.6 165.14 52.69 180.6 63.12 180.6 69.03 165.14 58.6 165.14"/><polygon class="cls-11" points="76.72 165.14 70.82 180.6 81.25 180.6 87.15 165.14 76.72 165.14"/><polygon class="cls-11" points="94.84 165.14 88.94 180.6 99.37 180.6 105.27 165.14 94.84 165.14"/><polygon class="cls-20" points="81.25 159.26 88.94 159.26 94.84 143.8 87.15 143.8 81.25 159.26"/><polygon class="cls-20" points="63.12 159.26 70.82 159.26 76.72 143.8 69.03 143.8 63.12 159.26"/><polygon class="cls-20" points="44.69 159.26 52.69 159.26 58.6 143.8 44.69 143.8 44.69 159.26"/><polygon class="cls-20" points="105.27 143.8 99.37 159.26 113.27 159.26 113.27 143.8 105.27 143.8"/><polygon class="cls-11" points="58.6 143.8 52.69 159.26 63.12 159.26 69.03 143.8 58.6 143.8"/><polygon class="cls-11" points="76.72 143.8 70.82 159.26 81.25 159.26 87.15 143.8 76.72 143.8"/><polygon class="cls-11" points="94.84 143.8 88.94 159.26 99.37 159.26 105.27 143.8 94.84 143.8"/><rect class="cls-11" x="53.01" y="148.58" width="51.95" height="27.22" rx="4.44"/><rect class="cls-11" x="55.39" y="150.56" width="47.19" height="22.94" rx="3.48"/><path class="cls-15" d="M99.09,174H58.87a4,4,0,0,1-4-4v-16a4,4,0,0,1,4-4H99.09a4,4,0,0,1,4,4v16A4,4,0,0,1,99.09,174ZM58.87,151.06a3,3,0,0,0-3,3v16a3,3,0,0,0,3,3H99.09a3,3,0,0,0,3-3v-16a3,3,0,0,0-3-3Z"/><path class="cls-15" d="M66.47,159.21a4.07,4.07,0,0,1-.23,1.4,2.85,2.85,0,0,1-.68,1,2.93,2.93,0,0,1-1.11.66,4.72,4.72,0,0,1-1.52.22,4.67,4.67,0,0,1-1.45-.2,2.72,2.72,0,0,1-1.08-.61,2.62,2.62,0,0,1-.68-1,3.9,3.9,0,0,1-.23-1.43v-5.2a.15.15,0,0,1,0-.11.21.21,0,0,1,.14-.09,1.46,1.46,0,0,1,.27,0,2.56,2.56,0,0,1,.42,0,2.43,2.43,0,0,1,.41,0,1.46,1.46,0,0,1,.27,0,.28.28,0,0,1,.14.09.15.15,0,0,1,0,.11v5a2.86,2.86,0,0,0,.13.88,1.52,1.52,0,0,0,.36.62,1.42,1.42,0,0,0,.56.36,1.9,1.9,0,0,0,.73.13,2.07,2.07,0,0,0,.73-.13,1.31,1.31,0,0,0,.55-.37,1.57,1.57,0,0,0,.35-.59,2.45,2.45,0,0,0,.12-.8v-5.15a.15.15,0,0,1,0-.11.24.24,0,0,1,.14-.09,1.19,1.19,0,0,1,.27,0,2.49,2.49,0,0,1,.41,0,2.56,2.56,0,0,1,.42,0,1.33,1.33,0,0,1,.26,0,.28.28,0,0,1,.14.09.21.21,0,0,1,0,.11Z"/><path class="cls-15" d="M75.37,161.78a.57.57,0,0,1-.06.27.48.48,0,0,1-.14.2.55.55,0,0,1-.21.12,1,1,0,0,1-.25,0H74a1.64,1.64,0,0,1-.4,0,.86.86,0,0,1-.31-.17,1.59,1.59,0,0,1-.27-.33,5.9,5.9,0,0,1-.3-.54l-2.12-4c-.13-.24-.25-.5-.38-.77s-.24-.55-.34-.81h0c0,.32,0,.64,0,.95s0,.64,0,1v4.47a.28.28,0,0,1,0,.12.28.28,0,0,1-.12.08.7.7,0,0,1-.25.06l-.39,0-.38,0a.7.7,0,0,1-.24-.06.36.36,0,0,1-.12-.08.27.27,0,0,1,0-.12v-7.68a.6.6,0,0,1,.18-.47.68.68,0,0,1,.45-.15h.93a1.66,1.66,0,0,1,.42,0,1,1,0,0,1,.31.14,1.16,1.16,0,0,1,.25.28,3.81,3.81,0,0,1,.25.43l1.66,3.12.29.56c.09.18.19.36.27.55s.18.36.26.54l.25.52h0c0-.3,0-.63,0-1s0-.65,0-1v-4a.21.21,0,0,1,0-.11.34.34,0,0,1,.13-.1l.25,0,.39,0,.37,0a1,1,0,0,1,.24,0,.27.27,0,0,1,.11.1.15.15,0,0,1,0,.11Z"/><path class="cls-15" d="M84.33,158a5.66,5.66,0,0,1-.31,2,3.38,3.38,0,0,1-.88,1.37,3.47,3.47,0,0,1-1.4.77,6.65,6.65,0,0,1-1.95.25H77.74a.52.52,0,0,1-.36-.13.51.51,0,0,1-.15-.42v-7.45a.5.5,0,0,1,.15-.41.52.52,0,0,1,.36-.13h2.2a6.46,6.46,0,0,1,1.94.26,3.6,3.6,0,0,1,1.34.8A3.44,3.44,0,0,1,84,156.2,5.21,5.21,0,0,1,84.33,158Zm-1.8.06a4.54,4.54,0,0,0-.14-1.13,2.33,2.33,0,0,0-.46-.9,2,2,0,0,0-.8-.6,3.34,3.34,0,0,0-1.29-.21H79V161h.9a3.31,3.31,0,0,0,1.21-.19,2,2,0,0,0,.81-.56,2.31,2.31,0,0,0,.49-.92A4.58,4.58,0,0,0,82.53,158.05Z"/><path class="cls-15" d="M90.82,161.71a2.58,2.58,0,0,1,0,.32.54.54,0,0,1,0,.21.24.24,0,0,1-.08.11.15.15,0,0,1-.11,0H86.27a.52.52,0,0,1-.37-.13.51.51,0,0,1-.15-.42v-7.45a.5.5,0,0,1,.15-.41.52.52,0,0,1,.37-.13h4.27a.19.19,0,0,1,.1,0,.23.23,0,0,1,.08.12.81.81,0,0,1,0,.21,2.58,2.58,0,0,1,0,.32,2.73,2.73,0,0,1,0,.32.83.83,0,0,1,0,.2.23.23,0,0,1-.08.12.21.21,0,0,1-.1,0H87.48v2.08h2.59a.25.25,0,0,1,.11,0,.24.24,0,0,1,.08.11.81.81,0,0,1,0,.21,2.82,2.82,0,0,1,0,.31,3,3,0,0,1,0,.32.83.83,0,0,1,0,.2.24.24,0,0,1-.08.11.23.23,0,0,1-.11,0H87.48V161h3.08a.15.15,0,0,1,.11,0,.24.24,0,0,1,.08.11.59.59,0,0,1,0,.21A2.73,2.73,0,0,1,90.82,161.71Z"/><path class="cls-15" d="M98.69,162.17a.21.21,0,0,1,0,.12s-.06.06-.12.08a1.41,1.41,0,0,1-.29,0h-1a1.33,1.33,0,0,1-.26,0,.36.36,0,0,1-.13-.09.61.61,0,0,1-.07-.14l-.76-1.91c-.1-.21-.19-.41-.28-.57a1.49,1.49,0,0,0-.29-.42,1.18,1.18,0,0,0-.37-.26,1.48,1.48,0,0,0-.49-.08h-.54v3.25a.17.17,0,0,1,0,.12.21.21,0,0,1-.14.09,1.2,1.2,0,0,1-.26,0l-.42,0-.42,0a1.31,1.31,0,0,1-.27,0,.24.24,0,0,1-.14-.09.16.16,0,0,1,0-.12v-7.76a.5.5,0,0,1,.15-.41.52.52,0,0,1,.37-.13h2.76l.4,0a3.73,3.73,0,0,1,.93.25,2.33,2.33,0,0,1,.7.47,2.1,2.1,0,0,1,.44.68,2.5,2.5,0,0,1,.15.9,2.67,2.67,0,0,1-.11.78,1.87,1.87,0,0,1-.32.63,2.21,2.21,0,0,1-.52.49,3.57,3.57,0,0,1-.71.33,1.65,1.65,0,0,1,.36.22,2.42,2.42,0,0,1,.32.32,3.55,3.55,0,0,1,.28.43c.09.16.17.34.26.54l.72,1.69c.06.17.11.29.13.37A.67.67,0,0,1,98.69,162.17Zm-2.24-5.8a1.23,1.23,0,0,0-.19-.71,1,1,0,0,0-.63-.41,2.27,2.27,0,0,0-.3-.06l-.46,0h-.78v2.43H95a2.13,2.13,0,0,0,.65-.09,1.27,1.27,0,0,0,.46-.25,1,1,0,0,0,.28-.39A1.35,1.35,0,0,0,96.45,156.37Z"/><path class="cls-15" d="M62,167.54v.14s0,.07,0,.1a.19.19,0,0,1,0,.07.17.17,0,0,1-.06.06.38.38,0,0,1-.13.1l-.25.11-.34.09a2.5,2.5,0,0,1-.4,0,2.13,2.13,0,0,1-.78-.13,1.56,1.56,0,0,1-.58-.39,1.77,1.77,0,0,1-.37-.66,2.82,2.82,0,0,1-.13-.91,3.06,3.06,0,0,1,.14-1,2,2,0,0,1,.4-.69,1.65,1.65,0,0,1,.61-.43,2.16,2.16,0,0,1,.78-.14,1.87,1.87,0,0,1,.34,0l.29.07.25.11a.73.73,0,0,1,.15.11l.06.07,0,.07a.37.37,0,0,1,0,.11.66.66,0,0,1,0,.15.86.86,0,0,1,0,.17.25.25,0,0,1,0,.1.16.16,0,0,1,0,.07l0,0a.22.22,0,0,1-.12-.06l-.19-.13-.28-.12a1.14,1.14,0,0,0-.39-.06,1.06,1.06,0,0,0-.45.1,1,1,0,0,0-.33.29,1.5,1.5,0,0,0-.21.46,2.74,2.74,0,0,0-.07.6,2.38,2.38,0,0,0,.08.64,1.29,1.29,0,0,0,.21.44.94.94,0,0,0,.34.26,1.09,1.09,0,0,0,.45.08,1.15,1.15,0,0,0,.39-.05,1,1,0,0,0,.28-.12l.19-.11a.19.19,0,0,1,.12-.05h0a.1.1,0,0,1,0,.05.65.65,0,0,0,0,.11Z"/><path class="cls-15" d="M66.28,166a2.94,2.94,0,0,1-.13.93,1.82,1.82,0,0,1-.38.7,1.65,1.65,0,0,1-.63.43,2.33,2.33,0,0,1-.87.15,2.45,2.45,0,0,1-.85-.13,1.36,1.36,0,0,1-.6-.39,1.61,1.61,0,0,1-.36-.66,3.38,3.38,0,0,1-.12-.95,3.18,3.18,0,0,1,.12-.91,1.94,1.94,0,0,1,.39-.69,1.79,1.79,0,0,1,.63-.44,2.33,2.33,0,0,1,.87-.15,2.47,2.47,0,0,1,.84.13,1.36,1.36,0,0,1,.6.39,1.65,1.65,0,0,1,.37.65A3.3,3.3,0,0,1,66.28,166Zm-.89.05a2.8,2.8,0,0,0,0-.6,1.26,1.26,0,0,0-.17-.46.94.94,0,0,0-.33-.3,1.15,1.15,0,0,0-.52-.1,1,1,0,0,0-.52.12.92.92,0,0,0-.34.31,1.11,1.11,0,0,0-.18.46,2.47,2.47,0,0,0-.06.56,2.87,2.87,0,0,0,.06.61,1.19,1.19,0,0,0,.17.46.8.8,0,0,0,.33.3,1.15,1.15,0,0,0,.52.1,1,1,0,0,0,.52-.12.92.92,0,0,0,.34-.31,1.54,1.54,0,0,0,.18-.47A2.48,2.48,0,0,0,65.39,166.09Z"/><path class="cls-15" d="M70.43,167.88a.51.51,0,0,1,0,.13.36.36,0,0,1-.07.1l-.11,0a.25.25,0,0,1-.12,0h-.36l-.19,0a.36.36,0,0,1-.15-.08.73.73,0,0,1-.14-.16c0-.07-.09-.16-.14-.27l-1-2c-.06-.11-.12-.24-.18-.37a4.21,4.21,0,0,1-.17-.39h0c0,.15,0,.31,0,.46s0,.31,0,.48v2.18a.08.08,0,0,1,0,.05.1.1,0,0,1-.06,0l-.12,0h-.38l-.11,0a.1.1,0,0,1-.06,0,.08.08,0,0,1,0-.05v-3.75a.29.29,0,0,1,.09-.23.32.32,0,0,1,.22-.07h.45a.65.65,0,0,1,.21,0,.35.35,0,0,1,.15.07.38.38,0,0,1,.12.13l.12.21.82,1.53c0,.09.09.18.14.27l.13.27.12.26a1.23,1.23,0,0,1,.12.26h0c0-.15,0-.31,0-.47v-2.43a.07.07,0,0,1,0-.06.15.15,0,0,1,.06,0l.12,0h.37l.12,0s0,0,.06,0a.13.13,0,0,1,0,.06Z"/><path class="cls-15" d="M74.11,164.35v.16a.81.81,0,0,1,0,.11.09.09,0,0,1,0,.06l-.05,0h-1v3.36a.07.07,0,0,1,0,.06.14.14,0,0,1-.07,0l-.13,0h-.41l-.13,0-.07,0a.14.14,0,0,1,0-.06V164.7h-1l0,0a.09.09,0,0,1,0-.06.81.81,0,0,1,0-.11s0-.09,0-.16,0-.11,0-.16l0-.11a.21.21,0,0,1,0-.06h3a.21.21,0,0,1,0,.06l0,.11Z"/><path class="cls-15" d="M77.7,168.07a.13.13,0,0,1,0,.06.15.15,0,0,1-.06,0l-.15,0H77a.35.35,0,0,1-.12,0s-.06,0-.07,0l0-.07-.38-.93c0-.1-.09-.2-.13-.28a.78.78,0,0,0-.14-.2.46.46,0,0,0-.18-.13.86.86,0,0,0-.24,0h-.27v1.59a.07.07,0,0,1,0,.06.14.14,0,0,1-.07,0l-.13,0h-.41l-.13,0a.15.15,0,0,1-.06,0,.07.07,0,0,1,0-.06v-3.79a.24.24,0,0,1,.07-.2.28.28,0,0,1,.18-.06h1.35l.19,0a1.48,1.48,0,0,1,.45.12,1.25,1.25,0,0,1,.35.23.93.93,0,0,1,.21.33,1.23,1.23,0,0,1,.07.44,1.13,1.13,0,0,1,0,.38,1,1,0,0,1-.16.31,1,1,0,0,1-.25.24,1.61,1.61,0,0,1-.35.16.54.54,0,0,1,.18.11.75.75,0,0,1,.16.15,1.93,1.93,0,0,1,.13.21c0,.08.09.17.13.27l.35.82.06.18A.37.37,0,0,1,77.7,168.07Zm-1.09-2.83a.56.56,0,0,0-.1-.35.52.52,0,0,0-.3-.2l-.15,0h-.61v1.19h.44a1,1,0,0,0,.31-.05.71.71,0,0,0,.23-.12.43.43,0,0,0,.13-.19A.6.6,0,0,0,76.61,165.24Z"/><path class="cls-15" d="M81.72,166.62a1.85,1.85,0,0,1-.11.69,1.36,1.36,0,0,1-.33.51,1.46,1.46,0,0,1-.54.32,2.4,2.4,0,0,1-.74.11,2.21,2.21,0,0,1-.71-.1,1.26,1.26,0,0,1-.53-.3,1.41,1.41,0,0,1-.33-.49,2.14,2.14,0,0,1-.11-.7v-2.54s0,0,0-.05a.1.1,0,0,1,.07,0l.13,0H79l.12,0a.1.1,0,0,1,.07,0,.05.05,0,0,1,0,.05v2.46a1.35,1.35,0,0,0,.06.43.83.83,0,0,0,.17.31.73.73,0,0,0,.28.17,1,1,0,0,0,.35.06,1,1,0,0,0,.36-.06.8.8,0,0,0,.27-.18.74.74,0,0,0,.17-.29,1.14,1.14,0,0,0,.06-.39v-2.51a.07.07,0,0,1,0-.05.18.18,0,0,1,.07,0l.13,0h.41l.13,0a.1.1,0,0,1,.06,0s0,0,0,.05Z"/><path class="cls-15" d="M85.51,167.54v.14s0,.07,0,.1a.19.19,0,0,1,0,.07l0,.06-.14.1-.25.11-.33.09a2.73,2.73,0,0,1-.41,0,2.13,2.13,0,0,1-.78-.13,1.56,1.56,0,0,1-.58-.39,1.77,1.77,0,0,1-.37-.66,2.82,2.82,0,0,1-.13-.91,3.06,3.06,0,0,1,.14-1,2,2,0,0,1,.4-.69,1.65,1.65,0,0,1,.61-.43,2.16,2.16,0,0,1,.78-.14,1.87,1.87,0,0,1,.34,0L85,164l.25.11a.52.52,0,0,1,.15.11l.06.07,0,.07a.37.37,0,0,1,0,.11.66.66,0,0,1,0,.15.86.86,0,0,1,0,.17.25.25,0,0,1,0,.1.16.16,0,0,1,0,.07l-.05,0a.22.22,0,0,1-.12-.06l-.19-.13-.28-.12a1.14,1.14,0,0,0-.39-.06,1.06,1.06,0,0,0-.45.1,1,1,0,0,0-.33.29,1.5,1.5,0,0,0-.21.46,2.74,2.74,0,0,0-.07.6,2.38,2.38,0,0,0,.08.64,1.14,1.14,0,0,0,.22.44.83.83,0,0,0,.33.26,1.09,1.09,0,0,0,.45.08,1.15,1.15,0,0,0,.39-.05,1,1,0,0,0,.28-.12l.19-.11a.21.21,0,0,1,.12-.05h0a.1.1,0,0,1,0,.05.65.65,0,0,0,0,.11Z"/><path class="cls-15" d="M88.93,164.35c0,.07,0,.12,0,.16a.29.29,0,0,1,0,.11.09.09,0,0,1,0,.06l0,0h-1v3.36a.14.14,0,0,1,0,.06l-.07,0-.13,0h-.41l-.13,0a.14.14,0,0,1-.07,0,.07.07,0,0,1,0-.06V164.7h-1l0,0a.09.09,0,0,1,0-.06.31.31,0,0,1,0-.11.71.71,0,0,1,0-.16.81.81,0,0,1,0-.16.36.36,0,0,1,0-.11.21.21,0,0,1,0-.06h3a.21.21,0,0,1,0,.06.35.35,0,0,1,0,.11C88.92,164.24,88.93,164.29,88.93,164.35Z"/><path class="cls-15" d="M90.27,168.06a.14.14,0,0,1,0,.06l-.07,0-.13,0h-.41l-.13,0-.07,0a.14.14,0,0,1,0-.06v-3.94a.08.08,0,0,1,0-.05.13.13,0,0,1,.07,0l.13,0h.41l.13,0a.13.13,0,0,1,.07,0,.08.08,0,0,1,0,.05Z"/><path class="cls-15" d="M94.93,166a2.94,2.94,0,0,1-.13.93,2,2,0,0,1-.38.7,1.65,1.65,0,0,1-.63.43,2.33,2.33,0,0,1-.87.15,2.41,2.41,0,0,1-.85-.13,1.36,1.36,0,0,1-.6-.39,1.52,1.52,0,0,1-.37-.66,3.38,3.38,0,0,1-.12-.95,2.86,2.86,0,0,1,.13-.91,1.92,1.92,0,0,1,.38-.69,1.79,1.79,0,0,1,.63-.44,2.68,2.68,0,0,1,1.71,0,1.4,1.4,0,0,1,.61.39,1.64,1.64,0,0,1,.36.65A3,3,0,0,1,94.93,166Zm-.89.05a3.64,3.64,0,0,0-.05-.6,1.47,1.47,0,0,0-.18-.46.8.8,0,0,0-.33-.3,1.13,1.13,0,0,0-.51-.1,1.07,1.07,0,0,0-.53.12.89.89,0,0,0-.33.31,1.27,1.27,0,0,0-.19.46,3.24,3.24,0,0,0,0,.56,3.76,3.76,0,0,0,0,.61,1.38,1.38,0,0,0,.18.46.8.8,0,0,0,.33.3,1.1,1.1,0,0,0,.51.1,1.07,1.07,0,0,0,.53-.12.82.82,0,0,0,.33-.31,1.33,1.33,0,0,0,.19-.47A3.24,3.24,0,0,0,94,166.09Z"/><path class="cls-15" d="M99.08,167.88a.28.28,0,0,1,0,.13.36.36,0,0,1-.07.1l-.1,0a.25.25,0,0,1-.12,0H98.4l-.2,0a.55.55,0,0,1-.15-.08,1.12,1.12,0,0,1-.13-.16l-.15-.27-1-2c-.06-.11-.13-.24-.19-.37l-.17-.39h0c0,.15,0,.31,0,.46v2.66a.07.07,0,0,1,0,.05l-.06,0-.12,0h-.38l-.12,0,0,0a.08.08,0,0,1,0-.05v-3.75a.29.29,0,0,1,.09-.23A.32.32,0,0,1,96,164h.45a.68.68,0,0,1,.21,0,.51.51,0,0,1,.15.07.51.51,0,0,1,.12.13,2,2,0,0,1,.12.21l.81,1.53c0,.09.1.18.14.27l.14.27.12.26.12.26h0c0-.15,0-.31,0-.47s0-.32,0-.47v-2a.14.14,0,0,1,0-.06l.07,0,.12,0h.37l.12,0,0,0a.14.14,0,0,1,0,.06Z"/><rect class="cls-20" x="122.64" y="143.95" width="25.64" height="25.64" rx="3.58" transform="translate(150.52 -49.87) rotate(45)"/><path class="cls-15" d="M148.91,153.79l-10.48-10.48a4.21,4.21,0,0,0-6,0L122,153.79a4.21,4.21,0,0,0,0,6l10.48,10.48a4.21,4.21,0,0,0,6,0l10.48-10.48a4.19,4.19,0,0,0,0-6Zm-.88,5.07-10.48,10.48a3,3,0,0,1-4.18,0h0l-10.49-10.48a3,3,0,0,1,0-4.18l10.49-10.49a3,3,0,0,1,4.18,0L148,154.68a2.95,2.95,0,0,1,0,4.18Z"/><path class="cls-15" d="M134.24,160a.56.56,0,0,0,.2.16,2.1,2.1,0,0,0,.4.1,5.22,5.22,0,0,0,.62,0,5.28,5.28,0,0,0,.61,0,2.1,2.1,0,0,0,.4-.1.53.53,0,0,0,.21-.16.48.48,0,0,0,.07-.21l.3-10.64a.5.5,0,0,0-.07-.27.66.66,0,0,0-.26-.18,2.19,2.19,0,0,0-.49-.12,5.5,5.5,0,0,0-.77,0q-.47,0-.78,0a2.12,2.12,0,0,0-.49.11.62.62,0,0,0-.26.2.6.6,0,0,0-.07.27l.31,10.64A.48.48,0,0,0,134.24,160Z"/><path class="cls-15" d="M136.76,161.89a1,1,0,0,0-.51-.3,3,3,0,0,0-.79-.08,3.17,3.17,0,0,0-.81.08,1,1,0,0,0-.5.3,1.06,1.06,0,0,0-.27.54,3.79,3.79,0,0,0-.07.82,3.75,3.75,0,0,0,.07.81,1.11,1.11,0,0,0,.27.53,1,1,0,0,0,.5.28,3.12,3.12,0,0,0,.81.09,2.91,2.91,0,0,0,.79-.09,1,1,0,0,0,.51-.28,1.11,1.11,0,0,0,.27-.53,4.19,4.19,0,0,0,0-1.63A1.06,1.06,0,0,0,136.76,161.89Z"/><path class="cls-15" d="M136.28,196.79V173.32h-1.65v23.47c-2.23.08-3.93.44-3.93.89s2.13.9,4.76.9,4.76-.4,4.76-.9S138.51,196.87,136.28,196.79Z"/><path class="cls-7" d="M234.78,105.68h0v-1a7.17,7.17,0,0,0-14.34,0v1h0a1.87,1.87,0,0,0-1.87,1.87v12.17a1.87,1.87,0,0,0,1.87,1.87h14.4a1.87,1.87,0,0,0,1.86-1.87V107.55A1.87,1.87,0,0,0,234.78,105.68Zm-5.94,6.81v5.61h-2.53v-5.61a2.49,2.49,0,1,1,3.76-2.14A2.47,2.47,0,0,1,228.84,112.49Zm2.92-6.81H223.4v-1a4.18,4.18,0,1,1,8.36,0Z"/><path class="cls-7" d="M112,61.73l-1.43.87a.23.23,0,0,1-.35-.17,9,9,0,0,0-16.45-4,.75.75,0,0,0,1.26.83,7.45,7.45,0,0,1,13.66,3.1.23.23,0,0,1-.35.22L107,61.73a.24.24,0,0,0-.33.31l2.62,4.87a.24.24,0,0,0,.41,0L112.35,62A.23.23,0,0,0,112,61.73Z"/><path class="cls-7" d="M108.77,67.88a.73.73,0,0,0-.62.33,7.46,7.46,0,0,1-13.67-3.1.24.24,0,0,1,.35-.23l1.34.82a.23.23,0,0,0,.32-.31l-2.61-4.87a.23.23,0,0,0-.41,0l-2.62,4.87a.23.23,0,0,0,.32.31l1.44-.87A.23.23,0,0,1,93,65a9,9,0,0,0,16.44,4A.75.75,0,0,0,108.77,67.88Z"/><path class="cls-23" d="M58,48.68l-.8-4.86a2.55,2.55,0,0,1,1.9-.76c2.28,0,4.68.25,5.06,1.9s-.06,3.42.45,4.11.82,1.29-.48,1a4.87,4.87,0,0,0-2.88.58l-2.26-1.2-1,.35Z"/><path class="cls-16" d="M46.75,89.19l-.23,1.58c.16,0,2.12.31,2.12.31l.23-1.59Z"/><path class="cls-15" d="M46.08,90.13l-5,1.66-.53,0a.8.8,0,0,0-.75.67.94.94,0,0,0,0,.26c0,.07,8.83,1.28,8.83,1.28s.62-2.79.17-3S46.67,91.05,46.08,90.13Z"/><polygon class="cls-21" points="43.26 91.06 43.57 91.87 43.26 91.98 42.95 91.17 43.26 91.06"/><polygon class="cls-21" points="42.71 91.25 43.01 92.02 42.7 92.13 42.4 91.35 42.71 91.25"/><polygon class="cls-21" points="42.2 91.42 42.48 92.16 42.17 92.28 41.88 91.52 42.2 91.42"/><path class="cls-16" d="M39.7,85.89l-.92,1.31c.14.08,1.76,1.22,1.76,1.22l.92-1.31Z"/><path class="cls-15" d="M38.67,86.43l-5.22-.77-.5-.19a.8.8,0,0,0-1,.26.7.7,0,0,0-.12.22c0,.08,7.31,5.11,7.31,5.11s1.8-2.22,1.48-2.58S38.79,87.51,38.67,86.43Z"/><polygon class="cls-21" points="35.74 86 35.65 86.85 35.32 86.82 35.41 85.95 35.74 86"/><polygon class="cls-21" points="35.17 85.91 35.08 86.73 34.76 86.7 34.84 85.86 35.17 85.91"/><polygon class="cls-21" points="34.63 85.83 34.54 86.62 34.22 86.59 34.3 85.79 34.63 85.83"/><path class="cls-15" d="M58.6,69.5S48.23,68,47.22,69.12s-7.85,17.22-7.85,17.22l2.22,1.27,8.66-12.28,9.43-3.92Z"/><path class="cls-16" d="M57.22,49.33s.21,2.15,1,2.34.22,1.26,1.56,1.64,2.33-.31,2.61,0S63.85,56,63.85,56l.57.7,1.69-5.13-1.62-2s-1.77.69-1.91-.57-2.12-1.58-2-.32S58.63,46.29,57.22,49.33Z"/><path class="cls-24" d="M64.9,51.2s1.87-1.68,2.06-.55,3.35,1,4.68,6.33a92.84,92.84,0,0,1,1.9,16c0,1.77-1.9,4.24-3,4.24s.63-2.09-2.72-5.63-6.33-3.74-6.33-3.74.2-7.57.77-9.6S63.59,51.68,64.9,51.2Z"/><path class="cls-15" d="M70.57,77.17s-7-.15-10.89-.49c-3.19-.27-6.72-.76-6.72-.76L49.81,90l-3.1-.38L48.1,71.41s-.45-2.78,5.32-2.21a134.25,134.25,0,0,0,13.86.31l2,2Z"/><path class="cls-16" d="M56.63,66.45s-4.08-.61-4.53-.61a4.05,4.05,0,0,0-2.34,1.21c-.49.67-1.09,1.76-.42,1.52s1.15-1,2.91-.61,2.56.75,4.21.54S56.63,66.45,56.63,66.45Z"/><polygon class="cls-25" points="43.1 62.37 48.25 68.6 46.18 68.6 40.66 62.19 43.1 62.37"/><path class="cls-26" d="M65.69,58.55s1.18-5.32,3.43-2.89,1.2,5.84.78,9.47S67.8,72,65.19,71.76s-8.85-3.31-8.85-3.31l.33-2.26,7.76,1S64.59,61.69,65.69,58.55Z"/><rect class="cls-25" x="46.18" y="68.26" width="8.2" height="0.6"/><path class="cls-23" d="M60.34,49a7.63,7.63,0,0,1,1.32,2c.05.53,0,2-.48,2.12a8.45,8.45,0,0,1-1.29.26l.78.1s1.6.11,1.7-.14.8-1.17.55-1.89A10.17,10.17,0,0,0,62.27,50l-1.7-1.61Z"/><path class="cls-11" d="M63.54,45.69l-7.62,4.74s-.67-.58.5-1.41-1.42-2.16.38-4.91a4.46,4.46,0,0,1,5.51-1.82c.86.43,2.18,2.92,2.18,2.92Z"/></g></g></svg>