<svg xmlns="http://www.w3.org/2000/svg" xmlns:xlink="http://www.w3.org/1999/xlink" viewBox="0 0 247.45 290.9"><defs><style>.cls-1{isolation:isolate;}.cls-2{fill:url(#Degradado_sin_nombre_861);}.cls-16,.cls-3,.cls-5{fill:#3bfaff;}.cls-3{opacity:0.5;}.cls-4,.cls-6{fill:#001b8d;}.cls-4{opacity:0.49;}.cls-5{opacity:0.85;}.cls-7{fill:url(#Degradado_sin_nombre_861-2);}.cls-8{fill:#b1d0ff;}.cls-9{fill:#82a4e4;}.cls-10,.cls-22{fill:#fff;}.cls-11{fill:#d7e8ff;}.cls-12{fill:#002ede;}.cls-13{fill:#00daff;}.cls-14{fill:#0021be;opacity:0.44;}.cls-14,.cls-33,.cls-35,.cls-39,.cls-45{mix-blend-mode:multiply;}.cls-15{fill:#0096ff;}.cls-17{fill:#1a2258;}.cls-18{fill:#005fff;}.cls-19{fill:#7eacd4;}.cls-20{fill:#000f25;}.cls-21{fill:#000004;}.cls-22{opacity:0.2;}.cls-23{fill:#003591;}.cls-24,.cls-45{fill:#008eff;}.cls-25{fill:#14afff;}.cls-26{fill:#ffcda9;}.cls-27{fill:#0091f4;}.cls-28{fill:#000f1f;}.cls-29{fill:#00217a;}.cls-30{fill:#131637;}.cls-31{fill:#ff907d;}.cls-32{fill:#003c9a;}.cls-33,.cls-42{fill:#001f5f;}.cls-33,.cls-45{opacity:0.3;}.cls-34{fill:#00237b;}.cls-35,.cls-38{fill:#d2eaff;}.cls-36{fill:#ffb500;}.cls-37{fill:none;stroke:#3bfaff;stroke-linecap:round;stroke-linejoin:round;stroke-width:0.33px;}.cls-39{opacity:0.4;fill:url(#Degradado_sin_nombre_2537);}.cls-40{fill:#ff7588;}.cls-41{fill:#002a88;}.cls-43{fill:#0023c5;}.cls-44{fill:#e3f9ff;}.cls-46{fill:#0089ff;}.cls-47{fill:#009eff;}</style><linearGradient id="Degradado_sin_nombre_861" x1="215.8" y1="220.74" x2="143.65" y2="112.05" gradientUnits="userSpaceOnUse"><stop offset="0" stop-color="#0042ff"/><stop offset="0.18" stop-color="#0040fb"/><stop offset="0.37" stop-color="#0039ee"/><stop offset="0.56" stop-color="#002dda"/><stop offset="0.76" stop-color="#001dbc"/><stop offset="0.95" stop-color="#000997"/><stop offset="1" stop-color="#00038d"/></linearGradient><linearGradient id="Degradado_sin_nombre_861-2" x1="119.49" y1="372.09" x2="139.4" y2="335.16" gradientTransform="matrix(0.99, -0.15, 0.15, 0.99, -34.61, -115)" xlink:href="#Degradado_sin_nombre_861"/><linearGradient id="Degradado_sin_nombre_2537" x1="-1578.04" y1="170.19" x2="-1578.04" y2="168.14" gradientTransform="matrix(-1, 0, 0, 1, -1351.46, 0)" gradientUnits="userSpaceOnUse"><stop offset="0" stop-color="#00dfff"/><stop offset="0.25" stop-color="#0cf"/><stop offset="0.76" stop-color="#009cff"/><stop offset="1" stop-color="#0082ff"/></linearGradient></defs><title>Asset 1</title><g class="cls-1"><g id="Layer_2" data-name="Layer 2"><g id="OBJECTS"><path class="cls-2" d="M191.74,131.83c-15.43,16.18-35.25,30.88-61.06,35.54-12.66,2.29-18.29,8.33-18.38,15.26-.08,5.91,3.43,12.87,15.83,20.14,30.3,17.77,64.15,11.37,81.76,3.63,22.09-9.7,41.4-32.3,36.23-57.23C240.09,120.06,209,113.7,191.74,131.83Z"/><rect class="cls-3" x="156.17" y="131.21" width="51.38" height="59.29" rx="3.74"/><path class="cls-4" d="M164.35,171.31a1.3,1.3,0,0,0-2.33-.82,1.3,1.3,0,0,0-1-.5,1.32,1.32,0,0,0-1.31,1.32,1.3,1.3,0,0,0,.51,1h0l0,0,.09.06,1.7,1.11,1.7-1.11.09-.06,0,0h0A1.3,1.3,0,0,0,164.35,171.31Z"/><path class="cls-4" d="M170.18,171.31a1.3,1.3,0,0,0-2.33-.82,1.3,1.3,0,0,0-1-.5,1.32,1.32,0,0,0-1.31,1.32,1.3,1.3,0,0,0,.51,1h0l0,0,.09.06,1.7,1.11,1.7-1.11.09-.06,0,0h0A1.3,1.3,0,0,0,170.18,171.31Z"/><rect class="cls-5" x="159.53" y="144.55" width="21.31" height="23.17" rx="2.8"/><rect class="cls-5" x="183.3" y="166.86" width="21.31" height="0.83"/><rect class="cls-5" x="183.3" y="169.58" width="21.31" height="0.83"/><rect class="cls-5" x="172.28" y="169.58" width="8.55" height="0.83"/><rect class="cls-5" x="172.28" y="172.26" width="8.55" height="0.83"/><rect class="cls-5" x="172.28" y="174.95" width="8.55" height="0.83"/><rect class="cls-5" x="172.28" y="177.64" width="8.55" height="0.83"/><rect class="cls-5" x="172.28" y="180.33" width="8.55" height="0.83"/><rect class="cls-5" x="172.28" y="183.01" width="8.55" height="0.83"/><rect class="cls-5" x="172.28" y="185.7" width="8.55" height="0.83"/><rect class="cls-5" x="159.53" y="185.7" width="8.55" height="0.83"/><rect class="cls-5" x="159.53" y="183.05" width="8.55" height="0.83"/><rect class="cls-5" x="159.53" y="180.41" width="8.55" height="0.83"/><rect class="cls-5" x="159.53" y="177.76" width="8.55" height="0.83"/><rect class="cls-5" x="159.53" y="175.11" width="8.55" height="0.83"/><rect class="cls-5" x="183.3" y="172.3" width="21.31" height="0.83"/><rect class="cls-5" x="183.3" y="175.02" width="21.31" height="0.83"/><rect class="cls-5" x="183.3" y="177.74" width="21.31" height="0.83"/><rect class="cls-5" x="183.3" y="180.46" width="21.31" height="0.83"/><rect class="cls-5" x="183.3" y="183.18" width="21.31" height="0.83"/><rect class="cls-5" x="183.3" y="185.9" width="21.31" height="0.83"/><rect class="cls-4" x="183.51" y="144.55" width="21.31" height="4.76"/><rect class="cls-4" x="183.51" y="151.71" width="21.31" height="4.76"/><rect class="cls-4" x="183.51" y="158.87" width="21.31" height="4.76"/><path class="cls-6" d="M203.81,131.21h-43.9a3.75,3.75,0,0,0-3.74,3.74v3.39h51.38V135A3.74,3.74,0,0,0,203.81,131.21Z"/><path class="cls-7" d="M162,218.58c-7.35-.29-15.49-.48-28.57-7-14.2-7.1-19.48,15.37-3.34,22.64,14.71,6.63,29.09-.85,33.92-6.37C171.2,219.55,164.21,218.67,162,218.58Z"/><path class="cls-8" d="M4.35,142.65h0l2.53-4.31,4.18,1.72L66.3,140c5.76,0,12.79,4.1,15.6,9.14L153.15,276.4c.06.11.1.21.15.31l.27-.18,2.6,2.09-2.49,4.25c-1,1.66-3,2.7-5.9,2.71l-56,.13c-5.77,0-12.79-4.1-15.61-9.13L4.82,149.22C3.38,146.65,3.31,144.32,4.35,142.65Z"/><path class="cls-9" d="M101.31,282.69a1.21,1.21,0,0,1-1,.52c-.35,0-.5-.23-.33-.52a1.23,1.23,0,0,1,.94-.53C101.33,282.16,101.48,282.4,101.31,282.69Z"/><path class="cls-9" d="M103.31,282.68a1.19,1.19,0,0,1-.94.53c-.36,0-.5-.24-.34-.53a1.21,1.21,0,0,1,1-.52C103.33,282.16,103.48,282.39,103.31,282.68Z"/><path class="cls-9" d="M105.32,282.67a1.2,1.2,0,0,1-.94.53c-.36,0-.51-.23-.34-.52a1.22,1.22,0,0,1,.95-.53C105.34,282.15,105.49,282.38,105.32,282.67Z"/><path class="cls-9" d="M107.33,282.67a1.19,1.19,0,0,1-.94.52c-.36,0-.51-.23-.34-.52a1.21,1.21,0,0,1,1-.52C107.35,282.14,107.5,282.38,107.33,282.67Z"/><path class="cls-9" d="M109.34,282.66a1.21,1.21,0,0,1-1,.53c-.35,0-.5-.24-.33-.52a1.21,1.21,0,0,1,1-.53C109.36,282.14,109.51,282.37,109.34,282.66Z"/><path class="cls-9" d="M111.35,282.66a1.22,1.22,0,0,1-.95.52c-.35,0-.5-.23-.33-.52a1.21,1.21,0,0,1,1-.53C111.37,282.13,111.52,282.37,111.35,282.66Z"/><path class="cls-9" d="M113.36,282.65a1.21,1.21,0,0,1-1,.52c-.35,0-.5-.23-.33-.52a1.19,1.19,0,0,1,.94-.52C113.38,282.13,113.53,282.36,113.36,282.65Z"/><path class="cls-9" d="M100.37,284.28a1.2,1.2,0,0,1-.94.53c-.36,0-.51-.24-.34-.53a1.24,1.24,0,0,1,1-.52C100.39,283.76,100.54,284,100.37,284.28Z"/><path class="cls-9" d="M102.38,284.27a1.2,1.2,0,0,1-.94.53c-.36,0-.51-.23-.34-.52a1.21,1.21,0,0,1,1-.53C102.4,283.75,102.55,284,102.38,284.27Z"/><path class="cls-9" d="M104.39,284.27a1.2,1.2,0,0,1-1,.52c-.35,0-.5-.23-.33-.52a1.2,1.2,0,0,1,1-.52C104.41,283.75,104.56,284,104.39,284.27Z"/><path class="cls-9" d="M106.4,284.26a1.21,1.21,0,0,1-1,.53c-.35,0-.5-.23-.33-.52a1.21,1.21,0,0,1,.95-.53C106.42,283.74,106.57,284,106.4,284.26Z"/><path class="cls-9" d="M108.41,284.26a1.24,1.24,0,0,1-1,.52c-.35,0-.5-.23-.33-.52a1.2,1.2,0,0,1,.94-.53C108.43,283.73,108.58,284,108.41,284.26Z"/><path class="cls-9" d="M110.42,284.25a1.25,1.25,0,0,1-1,.53c-.35,0-.5-.24-.33-.53a1.19,1.19,0,0,1,.94-.52C110.44,283.73,110.59,284,110.42,284.25Z"/><path class="cls-9" d="M112.42,284.24a1.19,1.19,0,0,1-.94.53c-.36,0-.5-.23-.34-.52a1.22,1.22,0,0,1,1-.53C112.44,283.72,112.59,284,112.42,284.24Z"/><path class="cls-9" d="M115.28,282.64a1.19,1.19,0,0,1-.94.53c-.36,0-.51-.23-.34-.52a1.22,1.22,0,0,1,1-.53C115.3,282.12,115.45,282.35,115.28,282.64Z"/><path class="cls-9" d="M114.35,284.24a1.2,1.2,0,0,1-.95.52c-.35,0-.5-.23-.33-.52a1.2,1.2,0,0,1,1-.52C114.37,283.71,114.52,284,114.35,284.24Z"/><path class="cls-9" d="M117.21,282.64a1.2,1.2,0,0,1-.95.52c-.35,0-.5-.23-.33-.52a1.23,1.23,0,0,1,.95-.53C117.23,282.11,117.38,282.35,117.21,282.64Z"/><path class="cls-9" d="M116.28,284.23a1.21,1.21,0,0,1-1,.53c-.35,0-.5-.24-.33-.53a1.22,1.22,0,0,1,.94-.52C116.3,283.71,116.45,283.94,116.28,284.23Z"/><path class="cls-9" d="M129.34,282.53a1.2,1.2,0,0,1-1,.52c-.35,0-.5-.23-.33-.52A1.19,1.19,0,0,1,129,282C129.36,282,129.51,282.24,129.34,282.53Z"/><path class="cls-9" d="M131.35,282.52a1.22,1.22,0,0,1-.95.53c-.35,0-.5-.24-.33-.53A1.22,1.22,0,0,1,131,282C131.37,282,131.52,282.23,131.35,282.52Z"/><path class="cls-9" d="M133.36,282.51a1.22,1.22,0,0,1-1,.53c-.35,0-.5-.23-.34-.52a1.22,1.22,0,0,1,1-.53C133.38,282,133.52,282.22,133.36,282.51Z"/><path class="cls-9" d="M135.36,282.51a1.19,1.19,0,0,1-.94.52c-.36,0-.51-.23-.34-.52A1.21,1.21,0,0,1,135,282C135.38,282,135.53,282.22,135.36,282.51Z"/><path class="cls-9" d="M137.37,282.5a1.2,1.2,0,0,1-.94.53c-.36,0-.51-.24-.34-.52A1.22,1.22,0,0,1,137,282C137.39,282,137.54,282.21,137.37,282.5Z"/><path class="cls-9" d="M139.38,282.5a1.22,1.22,0,0,1-.95.52c-.35,0-.5-.23-.33-.52a1.21,1.21,0,0,1,1-.53C139.4,282,139.55,282.21,139.38,282.5Z"/><path class="cls-9" d="M141.39,282.49a1.2,1.2,0,0,1-.95.52c-.35,0-.5-.23-.33-.52a1.2,1.2,0,0,1,.95-.52C141.41,282,141.56,282.2,141.39,282.49Z"/><path class="cls-9" d="M128.41,284.12a1.22,1.22,0,0,1-1,.53c-.36,0-.5-.24-.34-.53a1.24,1.24,0,0,1,.95-.52C128.43,283.6,128.57,283.83,128.41,284.12Z"/><path class="cls-9" d="M130.41,284.11a1.2,1.2,0,0,1-.94.53c-.36,0-.51-.23-.34-.52a1.22,1.22,0,0,1,1-.53C130.43,283.59,130.58,283.83,130.41,284.11Z"/><path class="cls-9" d="M132.42,284.11a1.19,1.19,0,0,1-.94.52c-.36,0-.51-.23-.34-.52a1.21,1.21,0,0,1,1-.52C132.44,283.59,132.59,283.82,132.42,284.11Z"/><path class="cls-9" d="M134.43,284.1a1.21,1.21,0,0,1-1,.53c-.35,0-.5-.23-.33-.52a1.21,1.21,0,0,1,.95-.53C134.45,283.58,134.6,283.81,134.43,284.1Z"/><path class="cls-9" d="M136.44,284.1a1.2,1.2,0,0,1-.95.52c-.35,0-.5-.23-.33-.52a1.23,1.23,0,0,1,1-.53C136.46,283.57,136.61,283.81,136.44,284.1Z"/><path class="cls-9" d="M138.45,284.09a1.23,1.23,0,0,1-.95.53c-.35,0-.5-.24-.33-.53a1.19,1.19,0,0,1,.94-.52C138.47,283.57,138.62,283.8,138.45,284.09Z"/><path class="cls-9" d="M140.46,284.08a1.22,1.22,0,0,1-1,.53c-.35,0-.5-.23-.33-.52a1.2,1.2,0,0,1,.94-.53C140.48,283.56,140.63,283.79,140.46,284.08Z"/><path class="cls-9" d="M143.32,282.48a1.22,1.22,0,0,1-.95.53c-.35,0-.5-.23-.33-.52A1.2,1.2,0,0,1,143,282C143.34,282,143.49,282.19,143.32,282.48Z"/><path class="cls-9" d="M142.38,284.08a1.19,1.19,0,0,1-.94.52c-.36,0-.51-.23-.34-.52a1.21,1.21,0,0,1,1-.52C142.4,283.55,142.55,283.79,142.38,284.08Z"/><path class="cls-9" d="M145.24,282.48a1.19,1.19,0,0,1-.94.52c-.36,0-.51-.23-.34-.52a1.21,1.21,0,0,1,.95-.52C145.26,282,145.41,282.19,145.24,282.48Z"/><path class="cls-9" d="M144.31,284.07a1.21,1.21,0,0,1-.95.53c-.35,0-.5-.24-.33-.52a1.21,1.21,0,0,1,.95-.53C144.33,283.55,144.48,283.78,144.31,284.07Z"/><path class="cls-10" d="M155.85,271.79c2.81,5,.4,9.17-5.37,9.18l-56,.13c-5.76,0-12.79-4.09-15.61-9.13L7.51,144.61c-2.81-5-.4-9.15,5.37-9.16L69,135.36c5.77,0,12.79,4.1,15.61,9.14Z"/><polygon class="cls-11" points="148.19 258.08 71.21 258.32 8.41 146.26 85.47 146.1 148.19 258.08"/><polygon class="cls-12" points="82.24 146.13 144.97 258.05 74.27 258.29 11.76 146.28 82.24 146.13"/><path class="cls-13" d="M63,176.07c-8.3,0-12.22,5.25-8.74,11.71s13.06,11.71,21.36,11.71,12.22-5.25,8.74-11.71S71.32,176.07,63,176.07Zm19.66,11.18H80a29,29,0,0,0-8.29-8.49C76.34,180.55,80.52,183.67,82.68,187.25Zm-22.52-9.71.35-.08a19.84,19.84,0,0,0,2.61,9.79H60C57.27,181.91,59.63,178.26,60.16,177.54Zm4.14-.37c.51,0,1,.06,1.55.12a37.27,37.27,0,0,1,8.29,10H69.73Zm4,10.08H64.48a23.49,23.49,0,0,1-1.69-4,14.3,14.3,0,0,1-.74-6c.28,0,.58,0,.87-.05Zm-4.64,1.07a42.27,42.27,0,0,0,8.14,9.82l-.68-.12c-5.64-3.54-8.87-6.84-10.62-9.7Zm1.37,0h3.85l5.43,10.07c-.26,0-.53,0-.79,0h0A41.36,41.36,0,0,1,65.08,188.32Zm5.22,0h4.4a20.42,20.42,0,0,1,2.32,10c-.41.05-.84.09-1.29.1Zm5.77,0h3.17a10.47,10.47,0,0,1-.09,9.52,5.79,5.79,0,0,1-.63.18A21.61,21.61,0,0,0,76.07,188.32Zm-.56-1.07a39.31,39.31,0,0,0-7.8-9.67l.63.15c1.83,1,7.49,4.55,10.34,9.52ZM58,178.35a10.63,10.63,0,0,0,.7,8.9H55.4C53.56,183.37,54.68,180,58,178.35Zm-2,10h3.26c1.61,2.69,4.42,5.73,9.09,9C63.14,195.6,58.34,192.24,56,188.32Zm25.29,8.58a11.2,11.2,0,0,0-.71-8.58h2.71C85,192,84.1,195.12,81.26,196.9Z"/><path class="cls-13" d="M88.86,211.69c1.5,2.79-.18,5-3.76,5s-7.69-2.25-9.19-5,.18-5,3.76-5S87.36,208.91,88.86,211.69Z"/><path class="cls-13" d="M85.7,217.85h0c-5.34,0-7.87,3.4-5.63,7.55l2.55,4.75a3.35,3.35,0,0,0,2.71,1.49h15.6c1,0,1.55-.67,1.11-1.49l-2.56-4.75C97.24,221.25,91,217.85,85.7,217.85Z"/><path class="cls-13" d="M94.29,199.49c-4.2,0-6.17,2.65-4.41,5.92a11.24,11.24,0,0,0,4.69,4.29c0,.57-.36,1.27-2,1.51,0,0,3.7,1.25,5.22-.27a11.84,11.84,0,0,0,2.86.38c4.2,0,6.18-2.65,4.41-5.91S98.49,199.49,94.29,199.49Z"/><path class="cls-13" d="M68.48,209.1a5.62,5.62,0,0,1,4.59,2.52,1.56,1.56,0,0,1,0,1.82,2.65,2.65,0,0,0,1.54.64,2.7,2.7,0,0,1-2.35-.11,3.2,3.2,0,0,1-1,.16,5.62,5.62,0,0,1-4.59-2.51C65.85,210.22,66.69,209.1,68.48,209.1Z"/><path class="cls-14" d="M87.44,211.09c-.71,1.2-3.47.91-6.16-.67s-4.3-3.83-3.6-5,3.47-.92,6.16.66S88.15,209.87,87.44,211.09Z"/><path class="cls-11" d="M16,141.91c-.33.55-1.59.42-2.82-.31s-2-1.75-1.65-2.3,1.59-.42,2.82.3S16.34,141.35,16,141.91Z"/><polygon class="cls-15" points="82.24 146.13 88.89 157.8 18.32 158.03 11.76 146.28 82.24 146.13"/><path class="cls-16" d="M24.66,153.51c-.48.81-2.34.62-4.15-.45s-2.9-2.58-2.42-3.39,2.33-.62,4.15.44S25.13,152.69,24.66,153.51Z"/><path class="cls-17" d="M33.25,153.51c-.48.81-2.34.62-4.15-.45s-2.9-2.58-2.42-3.39,2.33-.62,4.15.44S33.72,152.69,33.25,153.51Z"/><polygon class="cls-18" points="68.21 247.43 74.27 258.29 144.97 258.05 138.93 247.28 68.21 247.43"/><polygon class="cls-13" points="68.21 247.43 74.27 258.29 121.46 258.13 115.38 247.31 68.21 247.43"/><path class="cls-8" d="M126.73,272.1c-1,1.93-5.09,1.6-9.1-.74s-6.43-5.82-5.41-7.75,5.09-1.61,9.1.74S127.75,270.16,126.73,272.1Z"/><path class="cls-10" d="M125.45,271.16c-.87,1.5-4.29,1.14-7.64-.82s-5.33-4.76-4.45-6.26,4.3-1.14,7.64.82S126.33,269.66,125.45,271.16Z"/><path class="cls-19" d="M60.89,143c-.45.76-2.07.66-3.61-.25s-2.43-2.26-2-3,2.06-.66,3.61.24S61.34,142.19,60.89,143Z"/><path class="cls-20" d="M60.23,142.54c-.31.54-1.52.42-2.7-.26s-1.86-1.69-1.55-2.23,1.53-.43,2.71.26S60.55,142,60.23,142.54Z"/><path class="cls-8" d="M34.71,139.88l.09,0h.07l16.11.19h.08a3.3,3.3,0,0,1,1.52.5c1,.57,1.56,1.4,1.3,1.85a.59.59,0,0,1-.4.24.35.35,0,0,1-.16,0h0l-16.07-.15h-.07a3.46,3.46,0,0,1-1.61-.52c-1-.58-1.58-1.42-1.3-1.87A.62.62,0,0,1,34.71,139.88Z"/><path class="cls-21" d="M59,141.84c-.14.23-.67.18-1.18-.12s-.82-.73-.68-1,.67-.19,1.18.11S59.17,141.6,59,141.84Z"/><path class="cls-22" d="M59.72,141.93c-.13.22-.63.18-1.11-.1s-.76-.69-.63-.91.62-.18,1.1.1S59.84,141.71,59.72,141.93Z"/><path class="cls-22" d="M57.76,141.09c-.07.13-.34.1-.61-.06s-.43-.38-.35-.51.34-.09.61.06S57.84,141,57.76,141.09Z"/><path class="cls-23" d="M202.07,75.76A15.63,15.63,0,1,1,232,66.67a7,7,0,0,1,6.39,7,7.17,7.17,0,0,1-.24,1.8h.78a5.67,5.67,0,0,1-.54,11.32H219l-6.44,6.43V86.79h-8.66a5.67,5.67,0,0,1-1.84-11Z"/><path class="cls-24" d="M209.53,69.12a8.14,8.14,0,1,1,14.77,4.7h0l-5.2,7.92a1.71,1.71,0,0,1-2.87,0L211,73.83h0A8.06,8.06,0,0,1,209.53,69.12Z"/><path class="cls-16" d="M213.66,69.12a4,4,0,1,0,4-4A4,4,0,0,0,213.66,69.12Z"/><path class="cls-24" d="M195.88,21.34A16.2,16.2,0,0,0,196.6,17l7-5.44h-7.69a16.47,16.47,0,0,0-31.52.17A7.4,7.4,0,0,0,157.87,21h-.82A6,6,0,0,0,157.62,33H194a6,6,0,0,0,1.93-11.63Z"/><path class="cls-16" d="M178.52,7.34a10.63,10.63,0,1,0,0,21.26,10.22,10.22,0,0,0,2.59-.33,1.2,1.2,0,0,0,.83-.59,1.17,1.17,0,0,0,.11-.95,1.07,1.07,0,0,0-.43-.73,1.36,1.36,0,0,0-1.11-.2,6.84,6.84,0,0,1-2,.21,8,8,0,1,1,8-8.06,7.53,7.53,0,0,1-.87,3.64l0,.07a2.65,2.65,0,0,1-1.19,1.12h-.2a.5.5,0,0,0-.06-.14h0a.43.43,0,0,0,0-.25V18a5.69,5.69,0,1,0-11.37,0,5.87,5.87,0,0,0,5.71,6,5.28,5.28,0,0,0,3.13-1,3.29,3.29,0,0,0,.55,1.39,2.83,2.83,0,0,0,2.84.93A5.12,5.12,0,0,0,187.91,23l0-.05.06-.1a10.69,10.69,0,0,0-9.49-15.47Zm0,14a3.17,3.17,0,0,1-3-3.34,3.22,3.22,0,0,1,3-3.36A3.27,3.27,0,0,1,181.6,18,3.22,3.22,0,0,1,178.52,21.29Z"/><path class="cls-25" d="M96.73,103.82s-2.57,4-2,10.74c0,0,19.31-.74,31.28-20.11l-3-2.8S108.73,105.78,96.73,103.82Z"/><path class="cls-26" d="M124.56,90.75A12.54,12.54,0,0,1,125,88s1-3.58,1.2-4.13c0,0,.87-.13.88,1a11.29,11.29,0,0,1-.32,2.39,8.89,8.89,0,0,0,1.61-2c.43-.94,1.35-2.77,2-3s.63.45.63.45-1.42,2.81-1.71,3.41,0,.51,0,.51L132,83.23c.42-.51.86-.46,1.17,0,0,0-1.24,1.51-1.92,2.51-.23.35-1.25,1.38-.84,1.62,0,0,2.25-2.21,2.59-2.63a.52.52,0,0,1,1,.23l-2.82,3.23s-.16.27.05.31a10,10,0,0,0,2.07-1.13c.16-.16.69-.61,1-.12,0,0,.08.18-.41.6s-2.76,2.53-2.76,2.53a9.43,9.43,0,0,1-3.5,2.33c-2.16.8-2.84.17-1.6.62l-.58-1.11Z"/><polygon class="cls-16" points="127.61 92.83 124.53 90.11 123.03 91.65 126.06 94.45 127.61 92.83"/><path class="cls-27" d="M97.39,104a19.25,19.25,0,0,1,7.12,8.36,24.89,24.89,0,0,0-3,1.19l-2.59-3"/><path class="cls-28" d="M49.77,173.43l-2.64.06.25,11L50,176.68a2.24,2.24,0,0,0,.09-.89Z"/><path class="cls-29" d="M72.38,140.5l5.22,23.08s-13.09,1.14-28.42,9.88l.92,3,41.06-7.58v-8.67l-3.77-9.93"/><path class="cls-23" d="M72.38,140.5S81.51,157.28,94,168.91a58.25,58.25,0,0,0-10.11,30.23l2.41,1.26,16.09-31.28-7.75-29.39Z"/><path class="cls-16" d="M99.18,132.35s-3.25-7.43-1.55-13.8a15.41,15.41,0,0,0,3-2.37,32.36,32.36,0,0,0-.87-6.87c-1-3.76-1.84-6.22-2.7-6.13-3.57-1.4-4.89-3-9.89-1.85S77.72,112.89,75,126.61C83.21,134.35,99.18,132.35,99.18,132.35Z"/><path class="cls-30" d="M90.74,99.74l-3.07,2.53,0-10.73a7.12,7.12,0,0,1,7-6.83c5.57-.41,8.11,3.32,8.22,7.33C103.14,101.32,98,104,98,104l-.58-.67-1.64-.46L93.72,98.6l-.31,2.49"/><path class="cls-31" d="M101,91.4a11.19,11.19,0,0,1,1.19,3.6h-1.69Z"/><path class="cls-26" d="M96.07,100l4.57-.1c.14-1.38.22-1.64.31-2.3a2.26,2.26,0,0,1-2.26-1.22h2.43c.58-5.45-.17-6.78-.17-6.78l-.3-.66c-1.65,3.32-5.89,1.46-5.89,1.46a2.19,2.19,0,0,1-2.15,2.47c.59,5-2.73,6.28-2.73,6.28l-1.41,2.57,5,4,2.73-.42-.12-.57V100Z"/><path class="cls-30" d="M89.88,100.38a.71.71,0,0,1-.71.71.7.7,0,0,1-.7-.71.7.7,0,0,1,.7-.7A.7.7,0,0,1,89.88,100.38Z"/><path class="cls-32" d="M91.83,105.69l2,1.55a1.3,1.3,0,0,0,2-.54l.84-2-2.17-.13Z"/><path class="cls-25" d="M94.52,104.53l-2.66,2.65s-4.67-2.17-4.67-5.85L88.4,100A13.7,13.7,0,0,0,94.52,104.53Z"/><path class="cls-25" d="M94.52,104.53,97,106.46a5.29,5.29,0,0,0-1-3.69Z"/><path class="cls-30" d="M72.93,131.21s-21.19-2.92-17.88-20.37C57.67,97,75,100.4,83.42,93.49c5.92-4.86,6-9.4,13-8.75-6.37,3.94-5.22,12.76-5.22,12.76l-4,5.78s0,3.6-5.14,7.13C78.39,112.92,72.93,131.21,72.93,131.21Z"/><polyline class="cls-33" points="98.31 153.66 75.92 156.14 74.98 151.74"/><rect class="cls-10" x="71.72" y="117" width="36.42" height="36.42" rx="5.36"/><path class="cls-17" d="M103.84,133.29a7.81,7.81,0,0,0-13.91-4.9,7.81,7.81,0,1,0-10.86,11.06v0l.2.13c.18.13.36.24.55.36l10.12,6.62L100.05,140c.19-.12.37-.23.55-.36l.2-.13v0A7.8,7.8,0,0,0,103.84,133.29Z"/><path class="cls-24" d="M78.5,82.25a5.81,5.81,0,0,0-10.36-3.64,5.76,5.76,0,0,0-4.52-2.19,5.81,5.81,0,0,0-3.56,10.42v0l.15.1.41.27,7.53,4.93,7.54-4.93.41-.27.15-.1v0A5.79,5.79,0,0,0,78.5,82.25Z"/><path class="cls-16" d="M74.36,65.67a3.49,3.49,0,0,0-6.22-2.19,3.49,3.49,0,1,0-4.85,4.94h0l.09.06.24.16,4.52,3,4.53-3,.24-.16.09-.06h0A3.49,3.49,0,0,0,74.36,65.67Z"/><path class="cls-30" d="M72.56,53.39a2.48,2.48,0,0,0-4.42-1.56,2.48,2.48,0,0,0-4.41,1.56,2.49,2.49,0,0,0,1,2h0l.06,0,.18.11,3.21,2.11,3.22-2.11.18-.11.06,0h0A2.49,2.49,0,0,0,72.56,53.39Z"/><path class="cls-34" d="M94.55,107.49s-.69,8.57,5.26,9.51c9,1.41,9.2,7.51,9.2,7.51l2.08.94,1.54-4s1.18-5.14-7.56-6.92c-5-1-10.15-1.25-9.93-7.14"/><polygon class="cls-28" points="84.02 198.49 82.56 200.69 91.7 206.75 86.96 200.44 84.02 198.49"/><path class="cls-16" d="M93.62,67.66a15.63,15.63,0,1,1,29.9-9.09,7,7,0,0,1,6.4,7,6.63,6.63,0,0,1-.25,1.8h.78a5.67,5.67,0,0,1-.54,11.32H110.56l-6.43,6.43V78.69H95.46a5.67,5.67,0,0,1-1.84-11Z"/><path class="cls-16" d="M159.22,195.27h-.77a7.17,7.17,0,0,0,.24-1.8,7,7,0,0,0-6.39-7,15.63,15.63,0,1,0-29.9,9.09,5.71,5.71,0,0,0-2.32,1.53,51.84,51.84,0,0,0,8,5.69,80.61,80.61,0,0,0,10,5l1.16-1.16h19.35a5.67,5.67,0,0,0,.54-11.31Z"/><circle class="cls-24" cx="107.82" cy="63.74" r="10.39"/><path class="cls-10" d="M106.94,69.11l5.47-4a1.74,1.74,0,0,0,0-2.82l-5.47-4a1.74,1.74,0,0,0-2.76,1.41V67.7A1.74,1.74,0,0,0,106.94,69.11Z"/><path class="cls-35" d="M89.52,116.41s-5.12,12.86.57,30.72l-5.69,1s-14.06-19.21-.9-41.66C83.5,106.46,90.85,107.84,89.52,116.41Z"/><path class="cls-25" d="M89.52,116.41s-9.37,12.86.57,30.72l-5.69,1s-14.06-19.21-.9-41.66C83.5,106.46,90.85,107.84,89.52,116.41Z"/><path class="cls-30" d="M91.83,97.4s2.65,10.49-11.1,12A7.46,7.46,0,0,1,83,99Z"/><path class="cls-26" d="M90,147.4l.89,2.63,2.1.45,2.93.49a2.43,2.43,0,0,1-.91.91,3.34,3.34,0,0,1-1.47.2L94,153.4l2.51,0-3.62,1.75-2.91.91-2.54-1.39-.48-3.26-.78-1Z"/><polygon class="cls-16" points="86 151.16 90.72 148.36 89.22 145.43 84.4 148.12 86 151.16"/><path class="cls-25" d="M230.64,170.91s-20.06,1.23-30-10.72l-2.86,4.17s11.08,16.72,35.46,18.48A15,15,0,0,0,230.64,170.91Z"/><path class="cls-27" d="M205.46,172.21a49.12,49.12,0,0,0,12.13,7l8.84-2.59-.25-5.81a47.76,47.76,0,0,1-14.53-3Z"/><path class="cls-36" d="M229.55,182.43l1.09-11.52-9.18,9.72A52,52,0,0,0,229.55,182.43Z"/><path class="cls-26" d="M198.74,159l-3-4.49-9.94-3.67s-1.25,1.86,5.81,4.27l-1.23,1.95,1.21,3.54,4,1.14.65,1.05Z"/><polygon class="cls-16" points="194.81 162.43 199.56 158.33 201.84 160.72 197.15 164.95 194.81 162.43"/><path class="cls-10" d="M197.36,178.33l9.36,17.16-16,0-9.05-16.69a.85.85,0,0,1,.75-1.26l13.61,0A1.47,1.47,0,0,1,197.36,178.33Z"/><polygon class="cls-30" points="196.48 178.91 204.8 194.15 191.22 194.19 182.94 178.94 196.48 178.91"/><line class="cls-37" x1="184.79" y1="179.94" x2="196.02" y2="179.94"/><line class="cls-37" x1="185.38" y1="181" x2="189.15" y2="181"/><line class="cls-37" x1="190.89" y1="181" x2="192.44" y2="181"/><line class="cls-37" x1="193.18" y1="181" x2="194.73" y2="181"/><line class="cls-37" x1="185.97" y1="182.06" x2="197.2" y2="182.06"/><line class="cls-37" x1="186.57" y1="183.11" x2="197.79" y2="183.11"/><line class="cls-37" x1="187.16" y1="184.17" x2="191.67" y2="184.17"/><line class="cls-37" x1="187.75" y1="185.23" x2="189.73" y2="185.23"/><line class="cls-37" x1="190.9" y1="185.23" x2="192.89" y2="185.23"/><line class="cls-37" x1="193.96" y1="185.23" x2="195.94" y2="185.23"/><line class="cls-37" x1="197.01" y1="185.23" x2="198.99" y2="185.23"/><line class="cls-37" x1="188.34" y1="186.28" x2="199.57" y2="186.28"/><line class="cls-37" x1="194.63" y1="187.34" x2="200.16" y2="187.34"/><line class="cls-37" x1="189.53" y1="188.39" x2="200.75" y2="188.39"/><line class="cls-37" x1="190.12" y1="189.45" x2="201.35" y2="189.45"/><line class="cls-37" x1="190.71" y1="190.51" x2="201.94" y2="190.51"/><line class="cls-37" x1="191.3" y1="191.56" x2="202.53" y2="191.56"/><line class="cls-37" x1="191.9" y1="192.62" x2="203.12" y2="192.62"/><line class="cls-37" x1="195.43" y1="184.17" x2="198.23" y2="184.17"/><path class="cls-38" d="M247.45,282.74c0,4.51-9.82,8.16-21.93,8.16s-21.92-3.65-21.92-8.16,9.82-8.16,21.92-8.16S247.45,278.24,247.45,282.74Z"/><polygon class="cls-10" points="219.57 160.27 219.3 162.03 220.94 162.21 221.57 161 219.57 160.27"/><path class="cls-26" d="M223.38,167.8v-2.64a7.86,7.86,0,0,1-4.08-.73V162a3.19,3.19,0,0,0,1.7-.95l-1.7-.63.32-1.26-1.38-.79,2.2-3.75.18-2.21,1.39.95.63,4,.74-1.57s1.3-.71,1.78.57a1.71,1.71,0,0,1-1.78,2.33l2.14,4.34,4.81.26v4.45Z"/><path class="cls-30" d="M233.58,150.39c-5.7.38-7.89-.86-9.64-1.08-.54,3.23.7,2.12-1.92,4.14l.62,4.4.74-2a1.24,1.24,0,0,1,1.85,1.3,1.88,1.88,0,0,1-1.85,1.6l2.14,4.34,3.23,1.76,1.58-1.5c9.24-5.76,3.25-13,3.25-13Z"/><path class="cls-25" d="M231.62,167.8s-3.57-2.12-9.43,0l-1.36,2.6,11.19-.58Z"/><path class="cls-39" d="M221.13,169.82a14.89,14.89,0,0,1,10.65-1.19l.24,1.19-7.06.37-3.83-.37Z"/><polygon class="cls-40" points="220.44 154.65 219.62 159.19 218.24 158.4 220.44 154.65"/><path class="cls-16" d="M236.54,172.19s-6.21-6.47-19-1.25l-2.13,39.94h24S240.57,188,236.54,172.19Z"/><path class="cls-26" d="M195.62,195.07l-3.79-3.63-.07,1.85-4-3.44a9.05,9.05,0,0,0,5.71,7.67Z"/><path class="cls-26" d="M194.67,194.16l-2-2.34-2.05-2.34a1.15,1.15,0,0,0-.2,1.48l1.38,2.33"/><path class="cls-25" d="M217.5,170.94s-.63,12.27-7.56,20.25c-6.34,7.3-12.19,4.66-12.19,4.66l-3.12,3.56s5.39,4.36,17.26-.16c9.47-3.6,10.56-16.06,10.56-16.06S224,172.54,217.5,170.94Z"/><rect class="cls-16" x="193.86" y="194.39" width="2.65" height="4.73" transform="translate(177.7 -79.84) rotate(41.15)"/><path class="cls-28" d="M222.65,281.66v1a.71.71,0,0,1-.71.72H207.55s2-3.7,9-3.93A19.37,19.37,0,0,1,222.65,281.66Z"/><path class="cls-28" d="M244.2,280.26v1.43a.87.87,0,0,1-.87.87h-2a2.55,2.55,0,0,1-.9-.16l-7.93-3s2.12-2.47,6.84-.9Z"/><path class="cls-41" d="M239.42,210.88,240.57,249a59.55,59.55,0,0,1,1.82,5.86c2.27,8.61,1.9,25.73,1.9,25.73s-2.13,2-4.9-.27L232,247.1l-4.64-22.35-3.07,21.57s1.9,5,1.06,13.54c-.52,5.34-2.72,21.8-2.72,21.8s-4.05-.29-5.77-2.18l-1.51-39.59v-29Z"/><polygon class="cls-42" points="227.38 224.75 229.27 221.31 236.59 217.27 232.2 221.84 233.13 252.08 227.38 224.75"/><polygon class="cls-42" points="215.37 210.88 239.5 213.63 239.42 210.88 215.37 210.88"/><path class="cls-30" d="M222,153.45s-.89-.25-3.3.64a8.88,8.88,0,0,1,5.14-8l-1.84,0s3.92-2.69,9.06.87l-.75-1.84a5.15,5.15,0,0,1,3.25,5.26,7.94,7.94,0,0,1-6.11,2.05Z"/><path class="cls-24" d="M230.77,122.41a18.88,18.88,0,1,0-36.12-11,8.5,8.5,0,0,0-7.71,8.47,8.18,8.18,0,0,0,.29,2.17h-.94a6.85,6.85,0,0,0,.65,13.66h23.38l7.77,7.77v-7.77h10.46a6.84,6.84,0,0,0,2.22-13.31Z"/><circle class="cls-16" cx="211.99" cy="118.89" r="13.63" transform="translate(60.69 309.1) rotate(-80.78)"/><path class="cls-13" d="M199.34,113.88l1.46.5.64.29.5-.61-.51-1.88.65-1,1.07-1.59,4.55-1,.89-.93.88-.65,1.22-.49.28-1.27A13.61,13.61,0,0,0,199.34,113.88Z"/><path class="cls-6" d="M225.59,118l0-.44a1.64,1.64,0,0,1,0-.22l-.06-.43,0-.2c0-.19-.06-.39-.1-.58v-.06c0-.19-.09-.38-.13-.57l-.06-.21L225,115c0-.08,0-.16-.07-.23s-.08-.24-.12-.36a2.09,2.09,0,0,1-.08-.23l-.17-.42-.11-.26-.18-.4-.12-.25-.15-.28a2.15,2.15,0,0,0-.14-.26l-.15-.26-.15-.26-.15-.23c-.11-.18-.23-.35-.36-.53l-.12-.16-.22-.3-.13-.16-.24-.29-.12-.14-.27-.3,0,0c-.34-.35-.69-.69-1.06-1l-.07-.06-.36-.3-.06,0a14,14,0,0,0-1.69-1.15h0l-.46-.25h0a13.44,13.44,0,0,0-2-.83h0l-1.21.55.18,1.64.61-.24.59.38.87-.14-.08.91-.59,1.29-1.23.65s.61,1.19,1.24,1.06a2.45,2.45,0,0,0,1.16-.79l0-.78.86.4.53-.27.33.63.54.2.87-.14.35.35.84.49.32.63-1.14.12-1.39-.72-2.95.27-1.44,1.09-1.83,1.66.94,1.71-.47,1.85s1.94,2,3.83,1.54,2-.16,2-.16l.6-.32.14.67v1.75l.62,1.27-.44,1.22.84,2.16-.57,1.56.19.23a14,14,0,0,0,1.73-2h0l.36-.54v0c.11-.18.22-.36.32-.55l0,0c.1-.18.2-.36.29-.55l0,0,.25-.54,0-.08c.08-.17.15-.35.22-.53l0-.1a4.56,4.56,0,0,0,.18-.52L225,123c0-.17.1-.34.14-.51s0-.1.05-.15.08-.33.11-.49,0-.12.05-.18.06-.32.08-.48,0-.14,0-.2l.06-.48,0-.21c0-.17,0-.34,0-.51s0-.13,0-.2c0-.23,0-.47,0-.7s0-.43,0-.65A1.41,1.41,0,0,0,225.59,118Z"/><path class="cls-6" d="M211,105.3a13.5,13.5,0,0,0-6.32,2.11h0a13.34,13.34,0,0,0-2.53,2.09h0a13.66,13.66,0,0,0-2.78,4.34l1.46.49.64.3.5-.61-.51-1.88.65-1,1.07-1.58,4.55-1,.89-.93.88-.65,1.22-.49.28-1.27Z"/><path class="cls-6" d="M205.34,130.59l1.23-1,.92-2.65,1.41-.88a4.64,4.64,0,0,0,.52-2.17,2,2,0,0,0,.65-1.73l-2.31-.8-.75-1-.41-.85-2.3-.57-.63-.57-1.22,0L202,118l.4-.32-.52.11-.46.41-.39.35-.84.06-.92-.27-.34-1.64.47-.92-.33-.83-.12,0h0c-.12.41-.22.83-.31,1.25v.05c0,.2-.07.39-.1.59s0,.11,0,.17-.05.33-.06.49h0a.6.6,0,0,1,.16.25l.52.82,1.06,1-.52,1.57-.24,1.1a3.57,3.57,0,0,0,2.32,2.7l.19.9a.66.66,0,0,0,.6.45l-.09,2.16a1.18,1.18,0,0,0,0,.19h0l.63.58,0,0a14.42,14.42,0,0,0,1.41,1.06h0c.25.17.5.32.76.47h0Z"/><circle class="cls-24" cx="14.18" cy="135.45" r="2.89"/><path class="cls-24" d="M19.93,129.87a9.47,9.47,0,0,0-12.33,0A1.39,1.39,0,0,0,9.43,132a6.69,6.69,0,0,1,8.76,0,1.35,1.35,0,0,0,.87.31,1.38,1.38,0,0,0,.87-2.45Z"/><path class="cls-24" d="M26.93,120.6c-13.91-9.67-26.25,0-26.37.06A1.49,1.49,0,1,0,2.43,123a19.41,19.41,0,0,1,22.79.06,1.5,1.5,0,0,0,.85.27,1.49,1.49,0,0,0,.86-2.72Z"/><path class="cls-24" d="M23.5,124.86c-10.28-7.15-19.42,0-19.51.06a1.49,1.49,0,0,0,1.86,2.34,13.43,13.43,0,0,1,16,.06,1.48,1.48,0,0,0,.85.27,1.5,1.5,0,0,0,.85-2.73Z"/><rect class="cls-18" x="126.64" y="186.44" width="24.93" height="14.63" rx="2.41" transform="translate(278.21 387.51) rotate(180)"/><path class="cls-43" d="M127.51,187.11a2.59,2.59,0,0,1,1.73-.67H149a2.59,2.59,0,0,1,1.84.76l-11.6,11.61Z"/><path class="cls-44" d="M141.69,196.32h-5l-6.91-6.91V176.13a1.43,1.43,0,0,1,1.43-1.43h15.47a1.43,1.43,0,0,1,1.43,1.43v13.74Z"/><path class="cls-45" d="M148.14,182.83l-5.38,4.79-1.28-1.38a1,1,0,0,0-1.44-.14l-4.29,3.82-1.41-1.52a1,1,0,0,0-1.44-.14l-2.24,2,1.49,1.49,1.47-1.3L135,192a1,1,0,0,0,1.44.14l4.29-3.82,1.28,1.38a1,1,0,0,0,1.44.14l4.66-4.15Z"/><path class="cls-6" d="M154.09,176.36a1,1,0,0,0-1.41,0l-10.11,10.11-1.26-1.26a1,1,0,0,0-1.42,0l-4.22,4.23-1.39-1.39a1,1,0,0,0-1.42,0l-2.2,2.21,1.41,1.41,1.5-1.5,1.39,1.39a1,1,0,0,0,1.41,0l4.23-4.23,1.26,1.26a1,1,0,0,0,1.41,0l10.82-10.81A1,1,0,0,0,154.09,176.36Z"/><path class="cls-6" d="M155.35,180.29a1,1,0,0,1-1.7-.71v-3h-2.56a1,1,0,0,1,0-2h3.56a1,1,0,0,1,1,1v4A1,1,0,0,1,155.35,180.29Z"/><path class="cls-16" d="M136.3,177.05h-5.08a.25.25,0,0,1-.25-.25h0a.25.25,0,0,1,.25-.25h5.08a.25.25,0,0,1,.25.25h0A.26.26,0,0,1,136.3,177.05Z"/><path class="cls-16" d="M136.3,178.91h-5.08a.25.25,0,0,1-.25-.25h0a.25.25,0,0,1,.25-.25h5.08a.26.26,0,0,1,.25.25h0A.25.25,0,0,1,136.3,178.91Z"/><path class="cls-16" d="M136.3,182.05h-5.08a.25.25,0,0,1-.25-.25h0a.25.25,0,0,1,.25-.24h5.08a.25.25,0,0,1,.25.24h0A.25.25,0,0,1,136.3,182.05Z"/><path class="cls-16" d="M146,182.05h-8.48a.25.25,0,0,1-.24-.25h0a.24.24,0,0,1,.24-.24H146a.25.25,0,0,1,.25.24h0A.25.25,0,0,1,146,182.05Z"/><path class="cls-16" d="M141.68,184h-4.12a.24.24,0,0,1-.24-.24h0a.25.25,0,0,1,.24-.25h4.12a.25.25,0,0,1,.24.25h0A.24.24,0,0,1,141.68,184Z"/><path class="cls-16" d="M136.3,184h-5.08a.25.25,0,0,1-.25-.24h0a.25.25,0,0,1,.25-.25h5.08a.25.25,0,0,1,.25.25h0A.25.25,0,0,1,136.3,184Z"/><path class="cls-46" d="M150.81,200.31h0a2.59,2.59,0,0,1-1.84.76H129.24a2.6,2.6,0,0,1-2.09-1.07l10.32-6.37a3,3,0,0,1,3.24.05Z"/><circle class="cls-18" cx="153.08" cy="56.01" r="16.94" transform="translate(78.78 201.1) rotate(-82.98)"/><path class="cls-16" d="M150.85,54.36a.83.83,0,0,1-.83-.83,2.82,2.82,0,0,0-5.64,0,.83.83,0,1,1-1.65,0,4.47,4.47,0,0,1,8.94,0A.83.83,0,0,1,150.85,54.36Z"/><path class="cls-16" d="M162.6,54.36a.83.83,0,0,1-.82-.83,2.82,2.82,0,0,0-5.64,0,.83.83,0,1,1-1.65,0,4.47,4.47,0,1,1,8.94,0A.83.83,0,0,1,162.6,54.36Z"/><path class="cls-6" d="M153.08,67.16a8.6,8.6,0,0,0,8.6-8.6h-17.2A8.6,8.6,0,0,0,153.08,67.16Z"/><path class="cls-16" d="M145.12,61.82H161a8.65,8.65,0,0,0,.64-3.26h-17.2A8.65,8.65,0,0,0,145.12,61.82Z"/><circle class="cls-16" cx="129.88" cy="126.61" r="10.45"/><path class="cls-6" d="M128.5,125.58a.51.51,0,0,1-.51-.51,1.74,1.74,0,0,0-3.48,0,.51.51,0,0,1-1,0,2.76,2.76,0,0,1,5.52,0A.51.51,0,0,1,128.5,125.58Z"/><path class="cls-6" d="M135.75,125.58a.5.5,0,0,1-.5-.51,1.75,1.75,0,0,0-3.49,0,.51.51,0,1,1-1,0,2.76,2.76,0,0,1,5.51,0A.5.5,0,0,1,135.75,125.58Z"/><path class="cls-6" d="M133.5,127.2a1,1,0,0,0-1,1,2.65,2.65,0,1,1-5.29,0,1,1,0,0,0-2,0,4.6,4.6,0,1,0,9.19,0A1,1,0,0,0,133.5,127.2Z"/><path class="cls-47" d="M124.05,119h0l-1.45-3.89a.53.53,0,0,0-1,0L120,119.37h0a2,2,0,0,0,.19,1.78,2.26,2.26,0,0,0,1.83,1.16,2.21,2.21,0,0,0,2-3.28Z"/><path class="cls-16" d="M159.53,135.36a.88.88,0,1,1-.88-.87A.87.87,0,0,1,159.53,135.36Z"/><path class="cls-24" d="M162.51,135.36a.88.88,0,1,1-.88-.87A.88.88,0,0,1,162.51,135.36Z"/><path class="cls-16" d="M178.26,166.46a.68.68,0,0,1-.51-.23l-16.63-19.7a.67.67,0,0,1,.08-.94.68.68,0,0,1,.94.08l16.63,19.7a.67.67,0,0,1-.51,1.09Z"/><path class="cls-16" d="M161.63,166.46a.64.64,0,0,1-.43-.16.65.65,0,0,1-.08-.93l16.63-19.7a.68.68,0,0,1,.94-.08.67.67,0,0,1,.08.94l-16.63,19.7A.68.68,0,0,1,161.63,166.46Z"/><path class="cls-23" d="M130.17,255.9h-3.64l-1.75-2.81c-.52-.82,0-1.49,1.16-1.49h1.54Z"/><path class="cls-16" d="M134.37,250.91h-4.48l.11-.51a.53.53,0,0,0,0-.3l-.51-1.26a2,2,0,0,0-1.58-1c-.69-.07-1.09.24-.91.7l.45,1.1-.36,1.58a.72.72,0,0,0,.22.59l2.08,3.32a3.09,3.09,0,0,0,2.41,1.19H136c.86,0,1.25-.5.87-1.12l-1.59-2.54h.26c.69,0,1-.4.7-.89h0A2.34,2.34,0,0,0,134.37,250.91Z"/><path class="cls-17" d="M84.41,252.49a4.73,4.73,0,0,0-3.77-2.28,1.44,1.44,0,0,0-1.5.86,4.46,4.46,0,0,0-2.43-.86c-1.4,0-2,1-1.3,2.28a4.5,4.5,0,0,0,2,1.79h0l.08,0,.24.1L82,256.36l2.24-1.93.12-.1,0,0h0A1.49,1.49,0,0,0,84.41,252.49Z"/><path class="cls-17" d="M95.72,252.49A4.72,4.72,0,0,0,92,250.21a1.46,1.46,0,0,0-1.5.86,4.43,4.43,0,0,0-2.43-.86c-1.4,0-2,1-1.3,2.28a4.61,4.61,0,0,0,2,1.79h0l.08,0,.24.1,4.32,1.93,2.23-1.93.12-.1,0,0h0A1.51,1.51,0,0,0,95.72,252.49Z"/><path class="cls-17" d="M107,252.49a4.73,4.73,0,0,0-3.77-2.28,1.46,1.46,0,0,0-1.51.86,4.43,4.43,0,0,0-2.42-.86c-1.4,0-2,1-1.31,2.28a4.61,4.61,0,0,0,2,1.79h0l.09,0,.23.1,4.32,1.93,2.23-1.93a.4.4,0,0,0,.12-.1l0,0h0A1.52,1.52,0,0,0,107,252.49Z"/></g></g></g></svg>