<svg xmlns="http://www.w3.org/2000/svg" viewBox="0 0 2234.51 1509.96"><defs><style>.cls-1{fill:#ebeef4;}.cls-2{fill:#dae0ec;}.cls-3{fill:#7b7bef;}.cls-4{fill:#806bdd;}.cls-5{fill:#a093f9;}.cls-6{fill:#877cd6;}.cls-7{fill:#cbf;}.cls-8{fill:#9a7aea;}.cls-9{fill:#b19cf2;}.cls-10{fill:#7f6fdd;}.cls-11{fill:#7749e8;}.cls-12{fill:#6f2fea;}.cls-13{fill:#aa8fff;}.cls-14{fill:#875bf4;}.cls-15{fill:#7d53e5;}.cls-16{fill:#cabdff;}.cls-17{fill:#9474f7;}.cls-18{fill:#8864e2;}.cls-19{fill:#d7e6ff;}.cls-20{fill:#c0d8ff;}.cls-21{fill:#214d93;}.cls-22{fill:#fff;}.cls-23{fill:#bbd7ff;}.cls-24{fill:#f2f4f7;}.cls-25{fill:#1f6bff;}.cls-26{fill:#f9f9f9;opacity:0.46;}.cls-27{fill:#dcefee;}.cls-28{fill:#76abff;}.cls-29{fill:#fc0;}.cls-30{fill:#ff9500;}.cls-31{fill:#3c4e71;}.cls-32{fill:#ffa161;}.cls-33{fill:#212837;}.cls-34{fill:#0c4fba;}.cls-35{fill:#d37300;}.cls-36{fill:#1959bf;}.cls-37{fill:#cc7002;}.cls-38{fill:#869ac0;}</style></defs><title>Asset 2</title><g id="Layer_2" data-name="Layer 2"><g id="Layer_1-2" data-name="Layer 1"><path class="cls-1" d="M212.12,1384.34H1970.75s20.44-233.43-115.18-335.3-250.52-37.37-337.89-154.58S1089.22,458.49,912,450.92,647,704,515.93,746.1s-79.51,274-250.65,339.56c-107.14,41-186,197.5-203.77,298.68Z"/><path class="cls-2" d="M324.31,1384.34H1754.17s16.62-167.28-93.64-240.28-203.69-26.78-274.73-110.77S1037.44,720.88,893.38,715.45,677.86,896.84,571.32,927s-64.64,196.34-203.79,243.33c-87.11,29.41-151.27,141.53-165.67,214Z"/><path class="cls-3" d="M661.92,752.08s-50.35,45.43-99,136.34c-19.87,37.11-34.14,85-47.92,135.51l-49.86.83,33.7,58.43v0c-15.1,54.44-32,108.14-56.83,150.9-9.05,15.63-18.26,30-27.31,43.14l-72.5-5s17.33,32.33,31.79,58c-29.55,34.42-51.27,51.61-51.27,51.61H278.86s-37.35-136.34-24.35-236.94a445.41,445.41,0,0,1,8.52-46.3l72.5-31.65L278,1049.69c26.78-71.33,76.54-142.18,163.12-201.83,1.6-1.12,3.21-2.19,4.77-3.26l53.27.61s2.13-16.74,5.5-37.08C604.75,752.08,661.92,752.08,661.92,752.08Z"/><path class="cls-4" d="M584,797.53A1251.13,1251.13,0,0,0,472.75,921.68c-17.09,21.9-33.43,44.38-48.56,67.62a669.48,669.48,0,0,0-41.35,72c-3.17,6.14-5.84,12.51-8.79,18.75-2.61,6.38-5.5,12.65-7.84,19.13l-3.65,9.66-3.35,9.83-6.68,19.68c-8.41,26.39-16,53.05-22.47,80s-11.78,54.09-16,81.4c-2.1,13.66-3.93,27.36-5.37,41.07s-2.61,27.58-3,41l-14.6-.39c.75-14.4,2.21-28.2,4-42.17s3.9-27.78,6.32-41.58q7.32-41.37,17.93-82t24.37-80.24l7.14-19.71,3.6-9.84,3.94-9.78c2.54-6.55,5.62-12.87,8.43-19.3,3.13-6.27,6-12.68,9.34-18.83a675.47,675.47,0,0,1,43.39-71.73c15.76-23,32.68-45.25,50.32-66.83A1252.62,1252.62,0,0,1,584,797.53Z"/><path class="cls-4" d="M462.66,1106.76s-10-16.64-27.85-26.78-38.95-7.31-38.95-7.31l31.65,22.73Z"/><path class="cls-4" d="M429.26,937.75a60.77,60.77,0,0,0-20-19.2c-12.8-7.27-27.92-5.23-27.92-5.23l22.68,16.28Z"/><path class="cls-4" d="M310,1199.06a60.8,60.8,0,0,0-20-19.19c-12.8-7.27-27.92-5.24-27.92-5.24l22.69,16.29Z"/><path class="cls-5" d="M0,888.42S39.42,924,77.55,995.18c15.56,29.06,26.73,66.57,37.52,106.11l39,.65-26.38,45.76v0c11.82,42.63,25,84.69,44.49,118.16,7.1,12.24,14.3,23.49,21.39,33.78l56.78-3.92s-13.58,25.31-24.9,45.37c23.14,27,40.15,40.42,40.15,40.42H300S329.2,1274.78,319,1196a349.13,349.13,0,0,0-6.67-36.26L255.57,1135l45-13.5c-21-55.85-59.93-111.33-127.73-158-1.25-.88-2.51-1.71-3.73-2.55l-41.72.47s-1.66-13.1-4.3-29C44.76,888.42,0,888.42,0,888.42Z"/><path class="cls-4" d="M61,924a980.55,980.55,0,0,1,89.73,95.12c27.68,33.73,53.36,69.42,73.78,108.38,5.11,9.73,9.84,19.69,14.05,29.89s7.74,20.53,11.6,30.81q10.74,31.07,19.29,62.86,8.4,31.82,14.25,64.29c3.83,21.71,6.92,43.27,8.28,65.75l-14.6.4a565.2,565.2,0,0,0-6.37-64.06q-4.89-32-12.34-63.68t-17.39-62.58c-3.52-10.21-6.7-20.68-10.6-30.65s-8.15-19.93-12.9-29.64c-19-38.85-43.41-75.06-70-109.42A978.94,978.94,0,0,0,61,924Z"/><path class="cls-6" d="M156,1166.15s7.82-13,21.8-21,30.51-5.72,30.51-5.72l-24.79,17.79Z"/><path class="cls-6" d="M182.18,1033.81a47.61,47.61,0,0,1,15.63-15c10-5.7,21.87-4.1,21.87-4.1l-17.77,12.75Z"/><path class="cls-6" d="M267.27,1224.5a47.66,47.66,0,0,1,15.64-15c10-5.69,21.86-4.1,21.86-4.1L287,1218.12Z"/><path class="cls-7" d="M511.21,1048.34s-26.62,24-52.37,72.09c-10.5,19.62-18,45-25.33,71.65l-26.36.44L425,1223.41v0c-8,28.78-16.91,57.18-30,79.79-4.79,8.26-9.66,15.85-14.45,22.81l-38.33-2.66s9.16,17.1,16.81,30.64c-15.63,18.2-27.11,27.29-27.11,27.29H308.67S288.92,1309.22,295.8,1256a234.72,234.72,0,0,1,4.5-24.48l38.34-16.74-30.41-9.11c14.16-37.72,40.47-75.18,86.25-106.72.85-.59,1.7-1.15,2.52-1.72l28.17.32s1.12-8.85,2.91-19.6C481,1048.34,511.21,1048.34,511.21,1048.34Z"/><path class="cls-8" d="M470,1072.37a661.23,661.23,0,0,0-58.13,66.2c-17.77,23.3-34.08,47.84-46.65,74.06-6.47,13-11,26.68-15.51,40.64q-6.45,20.91-11.44,42.21c-6.38,28.29-11,57.52-12,85.88l-14.6-.4c2.25-30.42,8.17-59.37,15.83-88.18q5.89-21.49,13.33-42.49c5-13.87,10.47-28,17.67-41.06,14-26.32,31.57-50.34,50.44-73A661.55,661.55,0,0,1,470,1072.37Z"/><path class="cls-9" d="M405.85,1235.87a44.91,44.91,0,0,0-14.72-14.16c-9.44-5.36-20.6-3.86-20.6-3.86l16.74,12Z"/><path class="cls-9" d="M388.19,1146.51a32.14,32.14,0,0,0-10.55-10.15c-6.77-3.84-14.76-2.77-14.76-2.77l12,8.62Z"/><path class="cls-9" d="M325.12,1284.68a32.24,32.24,0,0,0-10.56-10.15c-6.76-3.84-14.76-2.77-14.76-2.77l12,8.61Z"/><path class="cls-6" d="M182.18,1243.8a47.72,47.72,0,0,1,15.63-15c10-5.69,21.87-4.1,21.87-4.1l-17.77,12.76Z"/><path class="cls-10" d="M2234.51,505s-70.1,63.25-137.9,189.83c-27.66,51.66-47.53,118.37-66.71,188.68l-69.43,1.15L2007.39,966V966c-21,75.8-44.54,150.58-79.12,210.11-12.61,21.76-25.43,41.76-38,60.06l-101-7s24.14,45,44.28,80.68c-41.16,47.93-71.4,71.87-71.4,71.87h-61s-52-189.84-33.9-329.91a619.17,619.17,0,0,1,11.86-64.47l101-44.07-80.07-24c37.29-99.33,106.58-198,227.13-281,2.23-1.56,4.47-3,6.64-4.54l74.17.85s3-23.31,7.66-51.63C2154.92,505,2234.51,505,2234.51,505Z"/><path class="cls-11" d="M2126,568.22a1741.43,1741.43,0,0,0-154.89,172.87c-23.8,30.49-46.54,61.79-67.62,94.15a933.17,933.17,0,0,0-57.57,100.22c-4.41,8.56-8.13,17.42-12.23,26.11-3.64,8.89-7.66,17.62-10.92,26.64l-5.08,13.45-4.67,13.69-9.3,27.39q-17.58,55.14-31.29,111.33-13.43,56.23-22.3,113.34c-2.93,19-5.47,38.09-7.48,57.18s-3.63,38.4-4.22,57.07l-20.33-.55c1.05-20,3.07-39.27,5.56-58.73s5.42-38.67,8.8-57.88q10.18-57.62,25-114.19t33.93-111.72l10-27.43,5-13.71,5.5-13.61c3.54-9.13,7.83-17.92,11.73-26.88,4.36-8.73,8.35-17.65,13-26.22A943.93,943.93,0,0,1,1897,830.86c22-32.09,45.5-63,70.07-93A1740.59,1740.59,0,0,1,2126,568.22Z"/><path class="cls-12" d="M1957.07,998.79s-13.91-23.17-38.77-37.29-54.24-10.17-54.24-10.17L1908.13,983Z"/><path class="cls-12" d="M1910.57,763.46s-10-16.6-27.8-26.73-38.88-7.29-38.88-7.29l31.59,22.68Z"/><path class="cls-12" d="M1744.46,1127.31s-10-16.6-27.79-26.73-38.88-7.29-38.88-7.29l31.59,22.68Z"/><path class="cls-13" d="M1312.87,694.78s54.9,49.53,108,148.65c21.66,40.45,37.21,92.69,52.24,147.75l54.36.9-36.74,63.71v0c16.46,59.35,34.88,117.91,62,164.52,9.87,17,19.9,32.7,29.78,47l79-5.47s-18.9,35.25-34.67,63.18c32.23,37.53,55.9,56.27,55.9,56.27h47.78s40.72-148.65,26.55-258.33a485.25,485.25,0,0,0-9.29-50.49l-79-34.51,62.7-18.79c-29.2-77.77-83.46-155-177.85-220-1.75-1.22-3.51-2.39-5.2-3.56l-58.08.66s-2.33-18.24-6-40.42C1375.2,694.78,1312.87,694.78,1312.87,694.78Z"/><path class="cls-14" d="M1397.83,744.33a1364.06,1364.06,0,0,1,124.94,132.45c38.55,47,74.3,96.66,102.74,150.9,7.12,13.55,13.69,27.42,19.55,41.62,6,14.21,10.78,28.58,16.16,42.9q14.94,43.26,26.86,87.53,11.7,44.3,19.83,89.5c5.34,30.23,9.65,60.26,11.54,91.56l-20.33.55c-1-29.3-4.43-59.57-8.88-89.2s-10.26-59.32-17.18-88.65-15.13-58.37-24.21-87.14c-4.9-14.21-9.32-28.8-14.76-42.68s-11.35-27.76-17.95-41.26c-26.4-54.1-60.45-104.52-97.47-152.36A1361.13,1361.13,0,0,0,1397.83,744.33Z"/><path class="cls-15" d="M1530.12,1081.48s10.9-18.14,30.36-29.2,42.48-8,42.48-8l-34.51,24.77Z"/><path class="cls-15" d="M1566.54,897.21s7.81-13,21.76-20.93,30.45-5.71,30.45-5.71L1594,888.33Z"/><path class="cls-15" d="M1685,1162.72s7.81-13,21.77-20.93,30.44-5.71,30.44-5.71l-24.74,17.76Z"/><path class="cls-16" d="M2024.67,917.45s-37.07,33.45-72.91,100.37c-14.63,27.32-25.13,62.59-35.28,99.77l-36.71.61,24.81,43v0c-11.11,40.08-23.55,79.62-41.83,111.09-6.67,11.51-13.45,22.09-20.11,31.76l-53.38-3.69s12.76,23.8,23.41,42.66c-21.76,25.35-37.75,38-37.75,38h-32.26s-27.5-100.37-17.93-174.44a327.59,327.59,0,0,1,6.28-34.09l53.37-23.3-42.33-12.69c19.71-52.52,56.35-104.67,120.09-148.59,1.18-.82,2.36-1.61,3.51-2.4l39.22.45s1.57-12.32,4.05-27.3C1982.59,917.45,2024.67,917.45,2024.67,917.45Z"/><path class="cls-17" d="M1967.3,950.91a920.19,920.19,0,0,0-80.93,92.17c-24.74,32.45-47.46,66.61-64.95,103.12-9,18.16-15.37,37.15-21.61,56.59q-9,29.12-15.92,58.77c-8.88,39.39-15.37,80.09-16.72,119.57l-20.34-.55c3.14-42.36,11.39-82.67,22.05-122.78,5.47-20,11.7-39.68,18.56-59.16,7-19.31,14.58-39,24.6-57.17,19.54-36.65,44-70.09,70.23-101.66A921.79,921.79,0,0,1,1967.3,950.91Z"/><path class="cls-18" d="M1878,1178.57a62.5,62.5,0,0,0-20.51-19.72c-13.14-7.47-28.67-5.38-28.67-5.38l23.3,16.73Z"/><path class="cls-18" d="M1853.39,1054.14a44.82,44.82,0,0,0-14.7-14.13c-9.42-5.36-20.56-3.86-20.56-3.86l16.71,12Z"/><path class="cls-18" d="M1765.56,1246.52a44.82,44.82,0,0,0-14.7-14.13c-9.42-5.35-20.55-3.85-20.55-3.85l16.7,12Z"/><path class="cls-18" d="M1566.54,1189.61s7.81-13,21.76-20.93,30.45-5.71,30.45-5.71L1594,1180.73Z"/><ellipse class="cls-1" cx="1004.36" cy="1459.97" rx="647.28" ry="49.98"/><path class="cls-1" d="M65.73,732.68s19.12-48.31,53.67-54.45,57.91,25,57.75,24.09,31.88-40,59.41-44.9,50.73,25.34,50.73,25.34-35.42-14.41-48.23-11.3-60.27,49.13-60.27,49.13S149,691.35,121.63,692.31C103.47,693,65.73,732.68,65.73,732.68Z"/><path class="cls-1" d="M184.61,856s14.78-26.3,35.14-27.13,31.36,18.91,31.34,18.38,21.47-20.53,37.69-21.19S316,844.65,316,844.65s-19.25-11.06-26.86-10.28-38.51,23.56-38.51,23.56-14.84-19.15-30.68-20.74C209.43,836.14,184.61,856,184.61,856Z"/><path class="cls-1" d="M1600.35,349.21s19.12-48.31,53.67-54.44,57.9,25,57.74,24.09,31.88-40,59.42-44.9,50.72,25.34,50.72,25.34-35.42-14.41-48.23-11.3-60.26,49.13-60.26,49.13-29.77-29.25-57.17-28.28C1638.08,309.49,1600.35,349.21,1600.35,349.21Z"/><path class="cls-1" d="M1770.08,556.23s14.77-26.3,35.13-27.13,31.36,18.91,31.34,18.37S1858,527,1874.24,526.29s27.2,18.54,27.2,18.54-19.25-11.06-26.86-10.27-38.51,23.55-38.51,23.55-14.84-19.15-30.68-20.74C1794.89,536.32,1770.08,556.23,1770.08,556.23Z"/><path class="cls-19" d="M1640.87,1082.85v269.72a34.91,34.91,0,0,1-34.91,34.91H405.2a34.91,34.91,0,0,1-34.91-34.91V1082.85l219.84-162L740.22,810.29l1.38,1.2,5.21,4.53,68.63,59.68,5.19,4.53,68.62,59.68,5.21,4.53,68.61,59.65,5.18,4.53,4.62,4a49.85,49.85,0,0,0,65.42,0l4.62-4,5.18-4.53,68.61-59.65,5.21-4.53,68.62-59.68,5.19-4.53L1264.35,816l5.21-4.53,1.38-1.2,63.82,47h0Z"/><path class="cls-20" d="M740.22,810.29,590.13,920.88l-219.84,162V523.43a34.87,34.87,0,0,1,34.91-34.9H506.51V607Z"/><path class="cls-20" d="M1640.87,523.43v559.42L1334.79,857.33h0l-63.82-47L1504.65,607V488.53H1606a34.87,34.87,0,0,1,34.91,34.9Z"/><path class="cls-21" d="M405.2,488.53H506.51V607L381.23,498A34.78,34.78,0,0,1,405.2,488.53Z"/><path class="cls-21" d="M1629.93,498,1504.65,607V488.53H1606A34.78,34.78,0,0,1,1629.93,498Z"/><path class="cls-22" d="M1504.65,366.11V607L1270.94,810.29l-232.65,202.34a49.85,49.85,0,0,1-65.42,0l-33.38-29L740.22,810.29,506.51,607V431.68H592V345.84h892.35a20.28,20.28,0,0,1,20.27,20.27Z"/><polygon class="cls-23" points="405.2 488.53 506.5 402.31 506.5 488.53 405.2 488.53"/><path class="cls-23" d="M1052,17.09l386.28,328.75H572.87L959.15,17.09A71.61,71.61,0,0,1,1052,17.09Z"/><polygon class="cls-23" points="1605.96 488.53 1504.65 488.53 1504.65 402.31 1605.96 488.53"/><path class="cls-24" d="M959.15,670.54,572.87,341.78h865.42L1052,670.54A71.63,71.63,0,0,1,959.15,670.54Z"/><rect class="cls-25" x="1284.58" y="418.46" width="148.16" height="53.91" rx="14.52"/><rect class="cls-2" x="596.94" y="553.24" width="163.07" height="4.53"/><rect class="cls-2" x="596.94" y="604.6" width="163.07" height="4.53"/><rect class="cls-2" x="871.85" y="683.09" width="267.46" height="4.53"/><rect class="cls-2" x="721.19" y="747.29" width="568.78" height="4.53"/><polygon class="cls-2" points="1269.56 811.49 1264.35 816.02 746.81 816.02 741.6 811.49 1269.56 811.49"/><polygon class="cls-2" points="1195.72 875.7 1190.53 880.23 820.63 880.23 815.44 875.7 1195.72 875.7"/><polygon class="cls-2" points="1121.91 939.91 1116.7 944.44 894.46 944.44 889.25 939.91 1121.91 939.91"/><polygon class="cls-2" points="1048.09 1004.1 1042.91 1008.63 968.25 1008.63 963.07 1004.1 1048.09 1004.1"/><path class="cls-26" d="M1504.65,607,1270.94,810.29l-1.38,1.2-5.21,4.53-68.63,59.68-5.19,4.53-68.62,59.68-5.21,4.53-68.61,59.65-5.18,4.53-4.62,4a49.85,49.85,0,0,1-65.42,0l-4.62-4-5.18-4.53-68.61-59.65-5.21-4.53-68.62-59.68-5.19-4.53L746.81,816l-5.21-4.53-1.38-1.2L506.51,607l499.07,381.84Z"/><path class="cls-27" d="M1148.46,1030.62c0,6.86-15.9,12.39-16.93,19-1.06,6.74,12.34,16.9,10.28,23.25s-18.93,6.8-22,12.77,6.51,19.86,2.56,25.29-20.09.59-24.86,5.36.11,20.87-5.35,24.85-19.26-5.64-25.29-2.56-6.31,19.89-12.78,22-16.5-11.34-23.25-10.28c-6.56,1-12.1,16.93-18.95,16.93s-12.39-15.9-19-16.93c-6.74-1.06-16.9,12.35-23.25,10.28s-6.8-18.93-12.78-22-19.85,6.52-25.29,2.56-.58-20.09-5.35-24.85-20.88.11-24.85-5.36,5.63-19.26,2.55-25.29-19.88-6.31-22-12.77,11.34-16.51,10.28-23.25c-1-6.57-16.93-12.1-16.93-19s15.9-12.39,16.93-19c1.06-6.74-12.34-16.89-10.28-23.25s18.93-6.8,22-12.77-6.51-19.86-2.55-25.29,20.08-.59,24.85-5.36-.11-20.87,5.35-24.85,19.26,5.64,25.29,2.56,6.31-19.88,12.78-22S986.21,912.06,993,911c6.57-1,12.1-16.93,19-16.93S1024.3,910,1030.86,911c6.75,1.06,16.9-12.35,23.25-10.28s6.81,18.93,12.78,22,19.85-6.52,25.29-2.56.59,20.09,5.35,24.85,20.88-.11,24.86,5.36-5.64,19.26-2.56,25.29,19.88,6.31,22,12.77-11.34,16.51-10.28,23.25C1132.56,1018.23,1148.46,1023.76,1148.46,1030.62Z"/><path class="cls-28" d="M1148.13,1008c0,7.16-16.6,12.93-17.68,19.79-1.1,7,12.89,17.64,10.74,24.27s-19.76,7.1-23,13.34,6.8,20.72,2.67,26.4-21,.61-25.94,5.59.11,21.79-5.59,25.94-20.11-5.88-26.4-2.67-6.59,20.76-13.34,22.95-17.23-11.84-24.27-10.74c-6.86,1.08-12.63,17.68-19.79,17.68s-12.93-16.6-19.79-17.68c-7-1.1-17.64,12.89-24.27,10.74s-7.1-19.76-13.34-22.95-20.72,6.8-26.4,2.67-.61-21-5.59-25.94-21.79.11-25.94-5.59,5.88-20.11,2.67-26.4-20.76-6.59-22.95-13.34,11.84-17.23,10.74-24.27c-1.08-6.86-17.68-12.63-17.68-19.79s16.6-12.93,17.68-19.79c1.1-7-12.89-17.64-10.74-24.27s19.76-7.1,22.95-13.33-6.8-20.73-2.67-26.41,21-.61,25.94-5.59-.11-21.79,5.59-25.94,20.11,5.88,26.4,2.67,6.59-20.76,13.34-23,17.23,11.84,24.27,10.74c6.86-1.08,12.63-17.68,19.79-17.68s12.93,16.6,19.79,17.68c7,1.1,17.64-12.89,24.27-10.74s7.1,19.76,13.34,23,20.72-6.8,26.4-2.67.61,21,5.59,25.94,21.79-.11,25.94,5.59-5.88,20.11-2.67,26.41,20.76,6.58,23,13.33-11.84,17.23-10.74,24.27C1131.53,995.07,1148.13,1000.84,1148.13,1008Z"/><circle class="cls-25" cx="1005.58" cy="1008" r="89.86" transform="translate(-418.24 1006.29) rotate(-45)"/><path class="cls-22" d="M1045.62,965.94q15.15,13.9,15.16,36,0,16.54-6.89,26.34t-18.61,9.8a16.13,16.13,0,0,1-10.14-3.22,11.86,11.86,0,0,1-4.78-8.17h-1.08q-4.54,10.77-16.95,10.78a21,21,0,0,1-17.09-8q-6.51-8-6.51-20.85,0-12.35,6.58-20.17a21.16,21.16,0,0,1,17-7.84,18.21,18.21,0,0,1,9.62,2.58,15.29,15.29,0,0,1,6.24,7h1.09v-8.28h10.24v39.81q0,7.51,7.66,7.52,6.43,0,10.24-7.49t3.8-20q0-18.37-12.69-29.8t-33-11.43A44.54,44.54,0,0,0,982,966.82,44,44,0,0,0,965.81,984a52,52,0,0,0-5.86,25q0,21.69,13,34.65t34.75,12.95a96.48,96.48,0,0,0,13.26-.88,34.76,34.76,0,0,0,9.46-2.38v8.55q-9.63,3.31-22.85,3.32-17.5,0-30.31-7a48.72,48.72,0,0,1-19.84-19.66q-7-12.72-7-30,0-16.82,7.09-29.53a50.86,50.86,0,0,1,19.7-19.87q12.62-7.16,29.22-7.15Q1030.47,952,1045.62,965.94ZM993.41,995q-3.84,5-3.83,13.9t3.83,13.9a12.4,12.4,0,0,0,10.48,5.09,13.52,13.52,0,0,0,11.12-5.16q4.13-5.14,4.13-13.83t-4.1-13.8a13.41,13.41,0,0,0-11-5.12A12.59,12.59,0,0,0,993.41,995Z"/><polygon class="cls-29" points="599.67 352.96 566.38 419.2 533.09 352.96 566.38 283.3 599.67 352.96"/><polygon class="cls-29" points="647.12 399.39 626.71 439.99 606.31 399.39 626.71 356.69 647.12 399.39"/><polygon class="cls-29" points="638.69 319.2 626.71 343.02 614.74 319.2 626.71 294.14 638.69 319.2"/><path class="cls-30" d="M1425.52,1183.63c-11.33,21-20.39,31.15-21.52,66.82-1.09,34.38-5.5,106.65-10,142.24-.19,1.33-.34,2.62-.53,3.85-4.71,34-10,63.57-19.25,62.28-8.78-1.22-13.59-32.16-16.1-71.34-3.22-50.4-2.58-114.47-1.63-146.66,1.7-57.19-2.33-112.9-2.33-112.9l30.07-15.63,44.71,37.44S1436.84,1162.68,1425.52,1183.63Z"/><path class="cls-31" d="M1380.33,1454.55s6,5.83,3.71,17.72c-1.32,7-61.42-6.75-60.57-13s43.68-9.42,43.68-9.42Z"/><path class="cls-30" d="M1470.6,1169.15c-11.06,20.46-19.91,30.42-21,65.27-1.06,33.59-5.38,104.19-9.82,138.95-.18,1.31-.34,2.57-.51,3.76-4.6,33.19-9.78,62.11-18.81,60.85-8.58-1.19-13.28-31.42-15.73-69.7-3.14-49.23-2.52-111.82-1.59-143.26,1.66-55.87-2.28-110.3-2.28-110.3l29.38-15.27L1473.9,1136S1481.66,1148.68,1470.6,1169.15Z"/><path class="cls-31" d="M1426.46,1433.8s5.83,5.7,3.62,17.32c-1.29,6.8-60-6.59-59.17-12.67s42.67-9.2,42.67-9.2Z"/><path class="cls-32" d="M1494.22,988.85s15.67,18.4,7.17,39.35-24.85,37.35-24.85,37.35l-19.6-9.32v-27.18l15.18-8.64Z"/><path class="cls-32" d="M1348.64,1105s-9.47,11.83-8.91,19.19,5.75,32.54,15.76,28.59S1348.64,1105,1348.64,1105Z"/><path class="cls-32" d="M1307.74,992.25s-18.14,23.26-8.68,44.92c11.7,26.8,49.58,67.82,49.58,67.82l25.54-13.46-19.18-9.19s-24.86-38-24.92-43.61c-.11-10,5.13-10.53,5.13-10.53l4.62-17.83Z"/><path class="cls-32" d="M1381.48,899.3s-3.47,6.42-4.14,16.9,2.07,16.55,2.07,16.55,20,3.71,28.84-8.45-1.35-23-1.35-23l-10.31-7.94Z"/><polygon class="cls-32" points="1396.1 932.11 1397.78 949.68 1414.67 949.68 1415.68 927.68 1405.89 917.72 1388.99 922.61 1396.1 932.11"/><path class="cls-25" d="M1445.54,946.79a96.58,96.58,0,0,0-78.22-2.08c-11.72,4.82-23.8,10.62-30.51,16.21-15.86,13.21-29.07,31.33-29.07,31.33s17.74,16,27.47,36l14.72-12.45s-4.06,5.75-3.68,12.45,13.59,12,13.59,30.11-12.84,38.88-13.22,63.42c0,0,25.08,26.42,78.14,27.93,48.58,1.38,54.36-16.61,54.36-16.61s-.2-170.19-32.65-185.82Z"/><path class="cls-25" d="M1450,949.68s18.16,10.48,29.11,20.68,15.1,18.49,15.1,18.49l-22.1,31.56-29.61-18.72Z"/><path class="cls-30" d="M1394,1392.69c-.19,1.33-.34,2.62-.53,3.85-4.71,34-10,63.57-19.25,62.28-8.78-1.22-13.59-32.16-16.1-71.34C1358.07,1387.48,1369.91,1399,1394,1392.69Z"/><path class="cls-30" d="M1439.76,1373.37c-.18,1.31-.34,2.57-.51,3.76-4.6,33.19-9.78,62.11-18.81,60.85-8.58-1.19-13.28-31.42-15.73-69.7C1404.71,1368.28,1416.28,1379.57,1439.76,1373.37Z"/><path class="cls-31" d="M1462.18,1033.27c18.26-23,1.78-77.49-23.64-93.69-27.38-17.45-25.25-60.2-42.56-69.28a19.51,19.51,0,0,0-17.68-.59c4.24-6.81,14.7-11.05,24.87-5.72,17.31,9.08,15.21,51.85,42.57,69.29C1473.94,951.23,1491.14,1016.3,1462.18,1033.27Z"/><path class="cls-33" d="M1462.18,1033.27a29.51,29.51,0,0,1-11,3.71c-46.84,6.52-47.63-28.06-42.56-63.19s-14-64.51-27.12-74.49c-13.38-10.21-4.24-27.48-4.24-27.48a12.3,12.3,0,0,1,1.07-2.11,19.51,19.51,0,0,1,17.68.59c17.31,9.08,15.18,51.83,42.56,69.28C1464,955.78,1480.44,1010.28,1462.18,1033.27Z"/><path class="cls-31" d="M1422.06,1025.68s6.33,5.44,19.25,5.7,19-5.27,19-5.27Z"/><path class="cls-34" d="M1371.16,975.83s1.27,15-5.59,21.52-11.46,10.47-11.46,10.47Z"/><path class="cls-34" d="M1362.68,1048.62a41,41,0,0,0,15.56,3.37c9.34.28,13-1.69,13-1.69Z"/><path class="cls-34" d="M1365.34,1058.63s17.52,10.19,34.33,12.66,22.23.31,22.23.31Z"/><path class="cls-35" d="M1442.51,1155.89s2,17.55-10.91,30-20.8,29.44-20.8,29.44Z"/><path class="cls-32" d="M572.76,833.59s8.54-2.72,9.78-6.46-3-7.25-3-7.25l-6.73,4.76Z"/><path class="cls-25" d="M552.76,946.78c7.63,14.76,15.65,22.88,23.19,27,.41-16.24,6.18-30.31,22.82-37.59-9-9.26-20.67-17.83-27.9-27-15-19,4.09-77.51-9.07-79.31S526.46,896,552.76,946.78Z"/><path class="cls-32" d="M554.87,834.22s-6.2-12.07-2.12-21.14,28.32-.45,26.74,6.8-7.42,17.13-13,18.08S554.87,834.22,554.87,834.22Z"/><path class="cls-30" d="M616.78,1154.17s-6.39,17.94,7.21,41.83c34.65,60.86-1.74,258,22.56,258,45.12,0,48.16-255.3,30.12-312.36S616.78,1154.17,616.78,1154.17Z"/><path class="cls-30" d="M574.65,1146.72s-5.38,17.21,6.08,40.13c29.19,58.38-1.46,247.43,19,247.43,38,0,40.58-244.89,25.38-299.62S574.65,1146.72,574.65,1146.72Z"/><path class="cls-32" d="M674.29,834.31s-9.13-2.9-10.46-6.9,3.27-7.75,3.27-7.75l7.19,5.09Z"/><path class="cls-32" d="M624.36,895.28s3.51,3,5.81,10.71,0,18.2,0,18.2-21.6,5.16-26.59-6.07.9-17,.9-17l7.67-7.75,6.39-1.16Z"/><polygon class="cls-32" points="618.92 925.37 618.92 935.94 603.2 935.94 605.82 921.28 614.58 920.45 618.92 925.37"/><path class="cls-25" d="M579.9,1062.35c-9.2,16.47-12.59,82.83-12.59,82.83s5.33,12.58,53.13,12.35c51.58-.26,68.94-23,68.94-23,3.87-47.48-22.77-53.29-17.92-76.54s5.48-69.75,0-95.58c-4-18.95-36.86-27.4-54.07-30.54a55.2,55.2,0,0,0-26.95,1.53,48.93,48.93,0,0,0-4.8,1.82c-16.65,7.29-22.42,21.35-22.83,37.59C561.94,1007.53,585.54,1052.24,579.9,1062.35Z"/><path class="cls-32" d="M693.41,835s6.63-12.91,2.27-22.6-30.28-.48-28.58,7.27S675,838,681,839,693.41,835,693.41,835Z"/><path class="cls-25" d="M633.6,966.39s-5.38,10,5.5,19S657.91,988,657.91,988,636.6,978.64,633.6,966.39Z"/><path class="cls-31" d="M589,908.82c4.32,2.81,3.37,14.15,18.32,12.89l.45,0c-9.87-1.21-9.59-10.09-13.29-12.49-4.82-3.15-5.13-6.83-3.52-12.54s7.11-6.66,6.94-9.52-7.44-4.08-3.87-8.48c4.86-6,11.78-4,16.05-6.25,2.55-1.37,12.73-21.33,21-21.61-8.84-9.92-22.91,18.49-26,20.14-4.39,2.36-11.52.29-16.52,6.47-3.64,4.51,3.84,5.76,4,8.72s-5.55,4.06-7.18,9.79S584.06,905.59,589,908.82Z"/><path class="cls-33" d="M594.5,909.18c3.7,2.4,3.42,11.28,13.29,12.49,10.72-1.16,1.79-10.77,4.63-13.63,1.3-1.32,2.9-.26,4.34,1.21,1.75,1.79,3.31,4.2,3.88,3.68s1.13-1,.85-3.28c-.15-1.07-.45-2.55-1-4.65-1.63-6.54,1.6-6.54,12-15.16s2.55-30.35,2.55-30.35c-1.14-4.22-2.48-7-4-8.71-8.27.28-18.45,20.24-21,21.61-4.27,2.26-11.19.23-16.05,6.25-3.57,4.4,3.73,5.6,3.87,8.48s-5.38,3.94-6.94,9.52S589.68,906,594.5,909.18Z"/><path class="cls-25" d="M633.77,963.19c-3,10,3.18,20.34,13.14,23.41,12.14,3.75,31.38,2.26,48.77-31.3C723.77,901,700,828.38,686,830.32s6.29,64.42-9.69,84.77C663.87,930.91,639.15,945,633.77,963.19Z"/><path class="cls-36" d="M632.27,1060.35s-17.42-3.33-28.68-3.65a43.22,43.22,0,0,0-19.1,3.65Z"/><path class="cls-36" d="M613.81,1083.18s-14.53-4.12-21.8-8.48-9.44-7.75-9.44-7.75Z"/><path class="cls-37" d="M608.38,1167.76s2.75,13.58,10.54,24.79,14.1,14.93,14.1,14.93Z"/><path class="cls-38" d="M683.26,1490.59a3.17,3.17,0,0,0,.28-2.77c-2.94-9.38-15.39-5.6-17.2-20.89-1.11-9.46-4.51-19.84-7-26.36a21.31,21.31,0,0,0-10.18-11.52c-4-2.07-9.09-3.86-13.91-3.14a4.59,4.59,0,0,1,2.2-2c5.67-2.39,12.23-.28,17.16,2.27a21.24,21.24,0,0,1,10.18,11.52c2.45,6.52,5.85,16.9,7,26.34,1.81,15.28,14.26,11.53,17.21,20.91C689.91,1487.82,687.4,1489.7,683.26,1490.59Z"/><path class="cls-31" d="M683.26,1490.59c-9.2,2-26.49-.7-32.45-7.13-7.91-8.53-21.52-47.47-15.52-57.55,4.82-.72,9.9,1.07,13.91,3.14a21.31,21.31,0,0,1,10.18,11.52c2.45,6.52,5.85,16.9,7,26.36,1.81,15.29,14.26,11.51,17.2,20.89A3.17,3.17,0,0,1,683.26,1490.59Z"/><path class="cls-38" d="M632.73,1472a2.84,2.84,0,0,0,.25-2.44c-2.59-8.22-13.51-4.91-15.1-18.33-1-8.3-4-17.41-6.11-23.13a18.73,18.73,0,0,0-8.93-10.11c-3.52-1.82-8-3.39-12.21-2.75a4,4,0,0,1,1.93-1.78c5-2.11,10.74-.25,15.06,2a18.7,18.7,0,0,1,8.94,10.1c2.14,5.72,5.13,14.83,6.1,23.12,1.59,13.41,12.52,10.12,15.1,18.35C638.57,1469.6,636.36,1471.25,632.73,1472Z"/><path class="cls-31" d="M632.73,1472c-8.08,1.77-23.25-.62-28.48-6.26-6.94-7.48-18.88-41.66-13.62-50.5,4.23-.64,8.69.93,12.21,2.75a18.73,18.73,0,0,1,8.93,10.11c2.15,5.72,5.13,14.83,6.11,23.13,1.59,13.42,12.51,10.11,15.1,18.33A2.84,2.84,0,0,1,632.73,1472Z"/></g></g></svg>